<svg width="20" height="20" viewBox="0 0 20 20" fill="none" xmlns="http://www.w3.org/2000/svg">
  <path d="M19.0002 9.99995C19.0002 10.481 18.6102 10.8709 18.1292 10.8709C17.6482 10.8709 17.2582 10.481 17.2582 9.99995C17.2582 9.51892 17.6482 9.12898 18.1292 9.12898C18.6102 9.12898 19.0002 9.51892 19.0002 9.99995Z" stroke="black" stroke-width="1.5" />
  <path d="M2.74194 9.99995C2.74194 10.481 2.35199 10.8709 1.87097 10.8709C1.38995 10.8709 1 10.481 1 9.99995C1 9.51892 1.38995 9.12898 1.87097 9.12898C2.35199 9.12898 2.74194 9.51892 2.74194 9.99995Z" stroke="black" stroke-width="1.5" />
  <path d="M5.06432 15.8064C5.06432 16.2874 4.67437 16.6774 4.19335 16.6774C3.71233 16.6774 3.32238 16.2874 3.32238 15.8064C3.32238 15.3254 3.71233 14.9354 4.19335 14.9354C4.67437 14.9354 5.06432 15.3254 5.06432 15.8064Z" stroke="black" stroke-width="1.5" />
  <path d="M10.8708 18.1291C10.8708 18.6101 10.4808 19 9.99982 19C9.51879 19 9.12885 18.6101 9.12885 18.1291C9.12885 17.648 9.51879 17.2581 9.99982 17.2581C10.4808 17.2581 10.8708 17.648 10.8708 18.1291Z" stroke="black" stroke-width="1.5" />
  <path d="M10.8708 1.87097C10.8708 2.35199 10.4808 2.74194 9.99982 2.74194C9.51879 2.74194 9.12885 2.35199 9.12885 1.87097C9.12885 1.38995 9.51879 1 9.99982 1C10.4808 1 10.8708 1.38995 10.8708 1.87097Z" stroke="black" stroke-width="1.5" />
  <path d="M5.06432 4.19361C5.06432 4.67463 4.67437 5.06457 4.19335 5.06457C3.71233 5.06457 3.32238 4.67463 3.32238 4.19361C3.32238 3.71258 3.71233 3.32264 4.19335 3.32264C4.67437 3.32264 5.06432 3.71258 5.06432 4.19361Z" stroke="black" stroke-width="1.5" />
  <path d="M16.6773 15.8064C16.6773 16.2874 16.2873 16.6774 15.8063 16.6774C15.3253 16.6774 14.9353 16.2874 14.9353 15.8064C14.9353 15.3254 15.3253 14.9354 15.8063 14.9354C16.2873 14.9354 16.6773 15.3254 16.6773 15.8064Z" stroke="black" stroke-width="1.5" />
  <path d="M16.6773 4.19361C16.6773 4.67463 16.2873 5.06457 15.8063 5.06457C15.3253 5.06457 14.9353 4.67463 14.9353 4.19361C14.9353 3.71258 15.3253 3.32264 15.8063 3.32264C16.2873 3.32264 16.6773 3.71258 16.6773 4.19361Z" stroke="black" stroke-width="1.5" />
  <path d="M14.6902 10.0452C14.6902 12.6106 12.6105 14.6903 10.0451 14.6903C7.47961 14.6903 5.3999 12.6106 5.3999 10.0452C5.3999 7.47971 7.47961 5.4 10.0451 5.4C12.6105 5.4 14.6902 7.47971 14.6902 10.0452Z" stroke="black" stroke-width="1.5" />
</svg>