<svg width="30" height="30" viewBox="0 0 30 30" fill="none" xmlns="http://www.w3.org/2000/svg">
<path fill-rule="evenodd" clip-rule="evenodd" d="M0 15C0 23.2843 6.71573 30 15 30C23.2843 30 30 23.2843 30 15C30 6.71573 23.2843 0 15 0C6.71573 0 0 6.71573 0 15ZM24.4138 14.4259C24.4119 19.3427 20.4122 23.3433 15.4944 23.3453H15.4907C13.9979 23.3448 12.5311 22.9703 11.2283 22.2597L6.5 23.5L7.76538 18.878C6.98483 17.5253 6.57411 15.9909 6.57478 14.4189C6.57674 9.50106 10.578 5.5 15.4943 5.5C17.8804 5.50103 20.1199 6.42992 21.8039 8.11588C23.4879 9.80176 24.4148 12.0427 24.4138 14.4259Z" fill="black"/>
<path fill-rule="evenodd" clip-rule="evenodd" d="M8.64151 21.381L11.4474 20.645L11.7181 20.8057C12.8563 21.4811 14.1611 21.8385 15.4914 21.839H15.4944C19.5805 21.839 22.9062 18.5133 22.9078 14.4255C22.9086 12.4446 22.1382 10.582 20.7385 9.18069C19.3388 7.77938 17.4774 7.00728 15.4973 7.00659C11.408 7.00659 8.08231 10.332 8.08069 14.4195C8.08011 15.8203 8.47206 17.1845 9.21416 18.3648L9.39043 18.6453L8.64151 21.381ZM19.6827 16.3464C19.8382 16.4215 19.9431 16.4722 19.9879 16.547C20.0436 16.6399 20.0436 17.0862 19.858 17.6069C19.6722 18.1274 18.7819 18.6026 18.3536 18.6665C17.9697 18.7239 17.4838 18.7479 16.9499 18.5782C16.6262 18.4755 16.2111 18.3384 15.6794 18.1087C13.5901 17.2066 12.1781 15.1816 11.9112 14.7988C11.8925 14.772 11.8795 14.7533 11.8722 14.7435L11.8704 14.7411C11.7524 14.5838 10.9622 13.5293 10.9622 12.4381C10.9622 11.4115 11.4664 10.8734 11.6985 10.6257C11.7144 10.6087 11.7291 10.5931 11.7422 10.5788C11.9464 10.3557 12.1879 10.2999 12.3365 10.2999C12.485 10.2999 12.6338 10.3013 12.7636 10.3078C12.7796 10.3086 12.7963 10.3085 12.8135 10.3084C12.9434 10.3077 13.1053 10.3067 13.2651 10.6904C13.3265 10.838 13.4164 11.0569 13.5113 11.2878C13.703 11.7547 13.9149 12.2705 13.9522 12.3452C14.0079 12.4568 14.0451 12.5869 13.9708 12.7357C13.9596 12.758 13.9493 12.779 13.9395 12.7992C13.8837 12.9131 13.8426 12.9969 13.7479 13.1074C13.7107 13.1509 13.6722 13.1978 13.6337 13.2446C13.557 13.338 13.4804 13.4314 13.4136 13.4979C13.302 13.609 13.1859 13.7296 13.3159 13.9527C13.4459 14.1759 13.8932 14.9056 14.5557 15.4966C15.2679 16.1319 15.8869 16.4004 16.2007 16.5365C16.262 16.563 16.3116 16.5846 16.348 16.6028C16.5708 16.7144 16.7008 16.6957 16.8308 16.547C16.9608 16.3983 17.3879 15.8962 17.5365 15.6731C17.685 15.4501 17.8337 15.4873 18.0379 15.5616C18.2422 15.6361 19.338 16.1751 19.5608 16.2867C19.6043 16.3085 19.645 16.3281 19.6827 16.3464Z" fill="black"/>
</svg>
