<svg width="21" height="21" viewBox="0 0 21 21" fill="none" xmlns="http://www.w3.org/2000/svg">
<path d="M10.8341 0.348267C5.37415 0.348267 0.924147 4.79827 0.924147 10.2583C0.924147 12.0083 1.38415 13.7083 2.24415 15.2083L0.844147 20.3483L6.09415 18.9683C7.54415 19.7583 9.17415 20.1783 10.8341 20.1783C16.2941 20.1783 20.7441 15.7283 20.7441 10.2683C20.7441 7.61827 19.7141 5.12827 17.8441 3.25827C15.9741 1.37827 13.4841 0.348267 10.8341 0.348267ZM10.8441 2.01827C13.0441 2.01827 15.1041 2.87827 16.6641 4.43827C18.2141 5.99827 19.0741 8.06827 19.0741 10.2683C19.0741 14.8083 15.3741 18.4983 10.8341 18.4983C9.35415 18.4983 7.90415 18.1083 6.64415 17.3483L6.34415 17.1783L3.22415 17.9983L4.05415 14.9583L3.85415 14.6383C3.03415 13.3483 2.59415 11.8183 2.59415 10.2583C2.60415 5.71827 6.29415 2.01827 10.8441 2.01827ZM7.32415 5.67827C7.16415 5.67827 6.89415 5.73827 6.66415 5.98827C6.44415 6.23827 5.79415 6.84827 5.79415 8.05827C5.79415 9.27827 6.68415 10.4483 6.79415 10.6183C6.93415 10.7883 8.55415 13.2883 11.0441 14.3483C11.6341 14.6183 12.0941 14.7683 12.4541 14.8783C13.0441 15.0683 13.5841 15.0383 14.0141 14.9783C14.4941 14.9083 15.4741 14.3783 15.6841 13.7983C15.8941 13.2183 15.8941 12.7283 15.8341 12.6183C15.7641 12.5183 15.6041 12.4583 15.3541 12.3483C15.1041 12.2083 13.8841 11.6083 13.6641 11.5283C13.4341 11.4483 13.2941 11.4083 13.1041 11.6483C12.9441 11.8983 12.4641 12.4583 12.3241 12.6183C12.1741 12.7883 12.0341 12.8083 11.7941 12.6883C11.5341 12.5583 10.7341 12.2983 9.79415 11.4583C9.05415 10.7983 8.56415 9.98827 8.41415 9.73827C8.29415 9.49827 8.40415 9.34827 8.52415 9.23827C8.63415 9.12827 8.79415 8.94827 8.89415 8.79827C9.02415 8.65827 9.06415 8.54827 9.14415 8.38827C9.22415 8.21827 9.18415 8.07827 9.12415 7.95827C9.06415 7.84827 8.56415 6.60827 8.35415 6.11827C8.15415 5.63827 7.95415 5.69827 7.79415 5.68827C7.65415 5.68827 7.49415 5.67827 7.32415 5.67827Z" fill="white"/>
</svg>
