<svg width="354" height="75" viewBox="0 0 354 75" fill="none" xmlns="http://www.w3.org/2000/svg">
  <path d="M27.8138 1.95682C31.9728 0.800519 36.3182 0.737111 40.6003 0.979561C44.1027 1.31526 47.5082 2.25895 50.813 3.43763C45.9267 3.69873 40.9285 3.67262 36.1989 5.12732C32.2078 6.33584 28.4591 8.75289 26.2249 12.3374C23.9682 15.687 23.1364 19.693 22.2039 23.5535C21.0588 28.1713 19.8876 32.789 18.7649 37.4142C21.2229 38.5481 23.7332 39.5813 26.236 40.622C27.5938 38.4549 29.2685 36.3735 31.6445 35.2844C34.9792 33.6544 39.3545 34.1728 42.0102 36.8398C43.9274 38.6115 44.8114 41.3643 44.4646 43.9342C44.1773 46.5863 42.939 49.1301 41.0591 51.0175C38.6868 53.2033 35.2142 54.5685 32.0213 53.5838C29.0261 52.7893 26.7023 50.3498 25.505 47.5598C22.7522 48.414 19.9137 48.966 17.1572 49.809C18.2501 52.5953 19.4698 55.445 21.6556 57.5711C24.6806 60.8423 29.1007 62.6924 33.5207 62.8752C39.1418 63.196 44.8637 60.9169 48.7279 56.8251C52.6183 53.0839 54.5803 47.6717 54.7705 42.3453C54.6139 38.343 53.2674 34.2623 50.4139 31.3641C48.1573 28.8613 45.0427 27.1269 41.7006 26.6233C37.2209 25.743 32.6442 27.5036 29.1156 30.219C29.9437 27.3208 30.7046 24.3965 31.3648 21.4573C35.3335 21.3677 39.3246 21.7034 43.2747 21.1701C48.3102 20.7784 53.5695 19.3349 57.3144 15.7727C59.0041 14.1987 60.4215 12.3001 61.2869 10.1479C62.8908 11.2147 64.0881 12.7626 65.3078 14.2285C71.5966 21.7519 74.5582 31.905 73.4094 41.6254C72.7044 48.2499 70.1083 54.6617 66.0202 59.9248C61.7606 65.5421 55.7665 69.7943 49.1271 72.1405C43.4425 74.1995 37.247 74.5874 31.2865 73.7742C22.8529 72.506 14.9304 68.1382 9.35034 61.689C0.812372 52.2372 -1.94783 38.1527 2.047 26.1048C5.78819 14.3777 15.8592 4.91844 27.8138 1.95682Z" fill="black" />
  <path d="M36.8887 9.18562C43.7706 6.99611 51.0776 7.9398 58.1721 7.55188C57.0232 9.78615 55.7849 12.1211 53.6737 13.5982C50.9881 15.6311 47.646 16.5673 44.345 16.9627C38.985 17.69 33.5615 17.2275 28.168 17.3431C29.6189 13.4714 32.9275 10.3792 36.8887 9.18562Z" fill="black" />
  <path d="M198.115 21.5916C200.233 20.8568 202.852 22.1399 203.187 24.4413C203.695 26.8322 201.539 29.2642 199.088 28.9247C196.742 28.8725 195.082 26.3025 195.746 24.1018C196.026 22.9344 197.033 22.0317 198.115 21.5916Z" fill="black" />
  <path d="M207.835 21.6401C210.118 20.715 213.02 22.3077 213.117 24.8516C213.452 27.6491 210.177 29.9207 207.686 28.5741C204.72 27.4589 204.784 22.6099 207.835 21.6401Z" fill="black" />
  <path d="M89.083 22.192C98.2812 22.192 107.479 22.1808 116.678 22.1957C116.648 33.4976 116.651 44.7995 116.674 56.1014C114.44 56.1238 112.205 56.1089 109.971 56.1164C109.967 46.9256 109.978 37.7387 109.967 28.5517C105.238 28.5442 100.512 28.5479 95.7821 28.5479C95.7821 37.7349 95.7709 46.9219 95.7896 56.1089C93.5553 56.1201 91.321 56.1089 89.083 56.1126C89.083 44.807 89.083 33.4976 89.083 22.192Z" fill="black" />
  <path d="M156.018 32.3825C159.9 29.4134 166.48 30.3347 168.692 34.945C170.68 32.3489 173.825 30.6778 177.126 30.7189C179.841 30.5398 182.706 31.3343 184.671 33.2888C186.671 35.0979 187.644 37.8469 187.618 40.5064C187.682 45.7023 187.659 50.8982 187.629 56.0941C185.503 56.0717 183.381 56.0941 181.258 56.109C181.285 51.4092 181.266 46.7057 181.27 42.0059C181.326 40.2453 180.613 38.3542 179.129 37.3322C177.04 35.9595 173.922 36.3176 172.299 38.2572C171.158 39.4322 170.781 41.1405 170.77 42.7332C170.781 47.1943 170.777 51.6554 170.773 56.1164C168.659 56.109 166.544 56.1127 164.432 56.1127C164.429 51.3943 164.429 46.6758 164.432 41.9574C164.47 39.8537 163.332 37.6194 161.299 36.8435C159.154 36.0416 156.473 36.7093 155.141 38.619C154.361 39.697 153.936 41.0211 153.97 42.3528C153.981 46.9369 153.97 51.5248 153.977 56.109C151.862 56.1165 149.747 56.109 147.633 56.1164C147.629 47.8545 147.633 39.5925 147.633 31.3306C149.721 31.3865 151.818 31.2 153.899 31.4537C153.869 32.554 153.794 33.6544 153.709 34.7547C154.552 34.0349 155.089 33.0128 156.018 32.3825Z" fill="black" />
  <path d="M192.288 37.735C193.978 34.0125 197.674 31.353 201.725 30.8532C203.318 30.7301 204.937 30.6965 206.529 30.9017C209.789 31.4463 212.881 33.3113 214.608 36.1684C216.414 39.0443 216.6 42.6363 216.127 45.9C209.916 46.0343 203.694 45.9037 197.48 45.9634C198.07 47.9403 199.3 49.8687 201.307 50.6296C205.123 52.1776 209.513 50.8348 212.706 48.4998C213.59 49.768 214.474 51.0437 215.19 52.4163C213.277 54.7065 210.2 55.9188 207.283 56.4261C204.358 56.6834 201.296 56.7357 198.532 55.598C195.197 54.3223 192.702 51.3383 191.654 47.9702C190.692 44.6243 190.818 40.913 192.288 37.735ZM200.464 36.9294C198.894 37.8357 197.932 39.4993 197.506 41.2189C201.729 41.2375 205.955 41.2412 210.181 41.2151C209.931 39.8574 209.357 38.5295 208.338 37.5746C206.231 35.6686 202.863 35.4374 200.464 36.9294Z" fill="black" />
  <path d="M226.261 34.5383C228.137 32.3451 230.857 30.6815 233.818 30.7636C237 30.551 240.245 31.7557 242.483 34.0348C247.765 39.0516 247.69 48.5333 242.308 53.4532C240.032 55.7881 236.683 56.8512 233.468 56.6013C230.663 56.5789 228.13 55.0384 226.302 52.9944C226.366 57.4032 226.295 61.8121 226.343 66.2209C224.228 66.2209 222.113 66.2209 219.999 66.2209C220.006 54.5908 219.999 42.9607 220.002 31.3305C222.099 31.3343 224.191 31.3231 226.291 31.3417C226.313 32.4048 226.299 33.4715 226.261 34.5383ZM230.939 36.892C228.85 37.5559 227.171 39.3053 226.507 41.3829C225.817 43.9118 226.235 46.8436 228.093 48.7869C230.551 51.5024 235.254 51.577 237.832 48.9958C240.79 46.1162 240.648 40.6481 237.358 38.0706C235.609 36.5637 233.102 36.3548 230.939 36.892Z" fill="black" />
  <path d="M258.962 30.9464C261.737 30.5436 264.677 30.5548 267.317 31.6066C271.543 33.3001 274.785 37.3807 275.191 41.9499C275.262 43.2107 275.27 44.4826 275.165 45.7433C274.587 50.6781 270.715 54.9676 265.937 56.2246C263.054 56.9483 259.958 56.8923 257.142 55.9225C253.901 54.7998 251.2 52.2671 249.809 49.1414C248.22 45.3741 248.332 40.8645 250.327 37.2688C252.106 34.0386 255.34 31.6551 258.962 30.9464ZM260.033 36.8697C257.604 37.5709 255.725 39.697 255.243 42.1663C254.296 45.956 257.052 50.3126 261.014 50.7453C265.05 51.5137 268.985 47.862 268.918 43.8485C269.052 41.2412 267.549 38.6601 265.27 37.4142C263.696 36.5116 261.76 36.4743 260.033 36.8697Z" fill="black" />
  <path d="M337.351 30.924C339.787 30.5809 342.413 30.6256 344.584 31.9237C345.878 32.4943 346.703 33.7103 347.922 34.3855C347.881 33.397 347.829 32.4123 347.766 31.4276C349.798 31.2262 351.846 31.3791 353.89 31.3306C353.92 39.5888 353.887 47.8508 353.905 56.109C351.887 56.1164 349.869 56.109 347.851 56.1202C347.836 55.0497 347.863 53.9792 347.892 52.9124C346.706 53.7591 345.792 54.9713 344.446 55.598C342.324 56.7617 339.809 56.7468 337.471 56.467C333.159 55.7956 329.593 52.3491 328.273 48.2648C327.31 45.1017 327.318 41.6142 328.463 38.4996C329.895 34.6913 333.327 31.6663 337.351 30.924ZM338.385 36.9405C334.297 38.3989 332.771 43.8671 334.953 47.4591C336.337 50.1037 339.642 51.4912 342.51 50.7415C344.979 50.1745 346.993 48.123 347.657 45.6985C348.72 42.3453 346.844 38.3691 343.61 37.0151C341.943 36.3736 340.063 36.3437 338.385 36.9405Z" fill="black" />
  <path d="M123.701 34.0572C126.312 31.6364 130.076 31.3194 133.466 31.3268C136.543 31.4052 139.632 31.1926 142.702 31.4387C142.616 39.6597 142.679 47.8806 142.672 56.1015C140.598 56.1276 138.528 56.1052 136.454 56.1164C136.45 53.2368 136.461 50.361 136.45 47.4852C135.13 47.7239 133.802 47.985 132.455 47.9626C130.579 50.6258 128.983 53.4793 127.092 56.1313C124.805 56.0903 122.519 56.1239 120.236 56.1164C122.216 53.0988 124.287 50.1372 126.398 47.2092C124.253 46.273 122.235 44.5795 121.705 42.2035C121.116 39.3911 121.474 36.0938 123.701 34.0572ZM129.352 37.0897C127.64 37.9289 127.274 40.4131 128.393 41.8641C129.203 42.7481 130.456 43.095 131.627 43.1248C133.239 43.1584 134.88 43.1994 136.458 42.8115C136.432 40.6854 136.502 38.563 136.405 36.4407C134.052 36.4742 131.568 36.1087 129.352 37.0897Z" fill="black" />
  <path d="M277.839 31.3193C279.924 31.3417 282.013 31.3305 284.102 31.3343C284.165 34.1318 284.083 36.933 284.132 39.7342C284.113 41.4015 285.243 43.0278 286.914 43.3859C289.115 43.7775 291.435 43.5164 293.498 42.6362C293.464 38.8651 293.487 35.0978 293.483 31.3305C295.594 31.3343 297.705 31.338 299.82 31.3268C299.839 39.5888 299.824 47.8507 299.828 56.1127C297.709 56.1127 295.598 56.1126 293.483 56.1164C293.475 53.3375 293.49 50.5587 293.475 47.7836C289.76 49.8239 285.046 49.9171 281.342 47.8209C278.649 46.3475 277.761 42.9868 277.809 40.1184C277.836 37.1866 277.791 34.2511 277.839 31.3193Z" fill="black" />
  <path d="M304.688 31.3679C306.814 31.1926 308.948 31.3418 311.077 31.2634C311.182 34.5309 311.126 37.8021 311.085 41.0733C314.263 38.0856 316.96 34.6018 320.1 31.5618C320.443 31.2075 321.003 31.3828 321.451 31.3194C323.741 31.338 326.031 31.3343 328.321 31.3194C324.647 35.1501 320.955 38.9622 317.213 42.7257C321.085 47.239 325.05 51.6703 328.981 56.1351C326.378 56.1015 323.778 56.1127 321.182 56.1201C317.874 52.5319 314.811 48.7273 311.555 45.098C311.436 45.0047 311.197 44.8182 311.077 44.725C311.167 48.5221 311.122 52.3193 311.115 56.1164C308.981 56.1052 306.855 56.1276 304.725 56.1015C304.733 47.8582 304.804 39.6112 304.688 31.3679Z" fill="black" />
</svg>