<?xml version="1.0" encoding="utf-8"?>
<!-- Generator: Adobe Illustrator 27.8.1, SVG Export Plug-In . SVG Version: 6.00 Build 0)  -->
<svg version="1.1" id="Слой_1" xmlns="http://www.w3.org/2000/svg" xmlns:xlink="http://www.w3.org/1999/xlink" x="0px" y="0px"
	 viewBox="0 0 500 500" style="enable-background:new 0 0 500 500;" xml:space="preserve">
<path d="M52.5,203.4c5.5-1.5,11.2-1.6,16.9-1.3c4.6,0.4,9.1,1.7,13.5,3.2c-6.5,0.3-13.1,0.3-19.3,2.2c-5.3,1.6-10.2,4.8-13.2,9.5
	c-3,4.4-4.1,9.7-5.3,14.8c-1.5,6.1-3.1,12.2-4.5,18.3c3.2,1.5,6.6,2.9,9.9,4.2c1.8-2.9,4-5.6,7.1-7c4.4-2.2,10.2-1.5,13.7,2.1
	c2.5,2.3,3.7,6,3.2,9.4c-0.4,3.5-2,6.9-4.5,9.4c-3.1,2.9-7.7,4.7-11.9,3.4c-4-1-7-4.3-8.6-8c-3.6,1.1-7.4,1.9-11,3
	c1.4,3.7,3.1,7.4,5.9,10.2c4,4.3,9.8,6.8,15.7,7c7.4,0.4,15-2.6,20.1-8c5.1-4.9,7.7-12.1,8-19.1c-0.2-5.3-2-10.7-5.8-14.5
	c-3-3.3-7.1-5.6-11.5-6.3c-5.9-1.2-12,1.2-16.6,4.7c1.1-3.8,2.1-7.7,3-11.6c5.2-0.1,10.5,0.3,15.7-0.4c6.6-0.5,13.6-2.4,18.5-7.1
	c2.2-2.1,4.1-4.6,5.2-7.4c2.1,1.4,3.7,3.5,5.3,5.4c8.3,9.9,12.2,23.3,10.7,36.2c-0.9,8.7-4.4,17.2-9.8,24.2
	c-5.6,7.4-13.5,13-22.3,16.1c-7.5,2.7-15.7,3.2-23.6,2.2c-11.1-1.7-21.6-7.4-29-16c-11.3-12.5-14.9-31.1-9.6-47
	C23.4,219.8,36.7,207.3,52.5,203.4z"/>
<path d="M64.4,213c9.1-2.9,18.7-1.6,28.1-2.2c-1.5,2.9-3.2,6-5.9,8c-3.5,2.7-8,3.9-12.3,4.4c-7.1,1-14.2,0.3-21.4,0.5
	C54.8,218.6,59.2,214.5,64.4,213z"/>
<path d="M277.3,229.3c2.8-1,6.3,0.7,6.7,3.8c0.7,3.2-2.2,6.4-5.4,5.9c-3.1-0.1-5.3-3.5-4.4-6.4C274.6,231.1,275.9,229.9,277.3,229.3
	z"/>
<path d="M290.1,229.4c3-1.2,6.8,0.9,7,4.2c0.4,3.7-3.9,6.7-7.2,4.9C286,237.1,286.1,230.7,290.1,229.4z"/>
<path d="M133.4,230.1c12.1,0,24.3,0,36.4,0c0,14.9,0,29.8,0,44.8c-2.9,0-5.9,0-8.9,0c0-12.1,0-24.3,0-36.4c-6.2,0-12.5,0-18.7,0
	c0,12.1,0,24.3,0,36.4c-2.9,0-5.9,0-8.9,0C133.4,260,133.4,245.1,133.4,230.1z"/>
<path d="M221.7,243.6c5.1-3.9,13.8-2.7,16.7,3.4c2.6-3.4,6.8-5.6,11.1-5.6c3.6-0.2,7.4,0.8,10,3.4c2.6,2.4,3.9,6,3.9,9.5
	c0.1,6.9,0.1,13.7,0,20.6c-2.8,0-5.6,0-8.4,0c0-6.2,0-12.4,0-18.6c0.1-2.3-0.9-4.8-2.8-6.2c-2.8-1.8-6.9-1.3-9,1.2
	c-1.5,1.6-2,3.8-2,5.9c0,5.9,0,11.8,0,17.7c-2.8,0-5.6,0-8.4,0c0-6.2,0-12.5,0-18.7c0.1-2.8-1.5-5.7-4.1-6.8
	c-2.8-1.1-6.4-0.2-8.1,2.3c-1,1.4-1.6,3.2-1.5,4.9c0,6.1,0,12.1,0,18.2c-2.8,0-5.6,0-8.4,0c0-10.9,0-21.8,0-32.7
	c2.8,0.1,5.5-0.2,8.3,0.2c0,1.5-0.1,2.9-0.3,4.4C219.8,245.8,220.5,244.4,221.7,243.6z"/>
<path d="M269.6,250.7c2.2-4.9,7.1-8.4,12.5-9.1c2.1-0.2,4.2-0.2,6.3,0.1c4.3,0.7,8.4,3.2,10.7,7c2.4,3.8,2.6,8.5,2,12.8
	c-8.2,0.2-16.4,0-24.6,0.1c0.8,2.6,2.4,5.2,5.1,6.2c5,2,10.8,0.3,15.1-2.8c1.2,1.7,2.3,3.4,3.3,5.2c-2.5,3-6.6,4.6-10.4,5.3
	c-3.9,0.3-7.9,0.4-11.6-1.1c-4.4-1.7-7.7-5.6-9.1-10.1C267.5,259.7,267.7,254.8,269.6,250.7z M280.4,249.6c-2.1,1.2-3.3,3.4-3.9,5.7
	c5.6,0,11.2,0,16.7,0c-0.3-1.8-1.1-3.5-2.4-4.8C288,247.9,283.6,247.6,280.4,249.6z"/>
<path d="M314.5,246.4c2.5-2.9,6.1-5.1,10-5c4.2-0.3,8.5,1.3,11.4,4.3c7,6.6,6.9,19.1-0.2,25.6c-3,3.1-7.4,4.5-11.7,4.2
	c-3.7,0-7-2.1-9.5-4.8c0.1,5.8,0,11.6,0.1,17.5c-2.8,0-5.6,0-8.4,0c0-15.4,0-30.7,0-46.1c2.8,0,5.5,0,8.3,0
	C314.5,243.6,314.5,245,314.5,246.4z M320.6,249.5c-2.8,0.9-5,3.2-5.9,5.9c-0.9,3.3-0.4,7.2,2.1,9.8c3.2,3.6,9.5,3.7,12.9,0.3
	c3.9-3.8,3.7-11-0.6-14.4C326.8,249.1,323.5,248.8,320.6,249.5z"/>
<path d="M357.6,241.7c3.7-0.5,7.5-0.5,11,0.9c5.6,2.2,9.9,7.6,10.4,13.7c0.1,1.7,0.1,3.3,0,5c-0.8,6.5-5.9,12.2-12.2,13.8
	c-3.8,1-7.9,0.9-11.6-0.4c-4.3-1.5-7.8-4.8-9.7-9c-2.1-5-2-10.9,0.7-15.7C348.6,245.8,352.9,242.6,357.6,241.7z M359.1,249.5
	c-3.2,0.9-5.7,3.7-6.3,7c-1.3,5,2.4,10.8,7.6,11.3c5.3,1,10.5-3.8,10.4-9.1c0.2-3.4-1.8-6.9-4.8-8.5
	C363.9,249,361.3,249,359.1,249.5z"/>
<path d="M461.1,241.7c3.2-0.5,6.7-0.4,9.5,1.3c1.7,0.8,2.8,2.4,4.4,3.3c-0.1-1.3-0.1-2.6-0.2-3.9c2.7-0.3,5.4-0.1,8.1-0.1
	c0,10.9,0,21.8,0,32.7c-2.7,0-5.3,0-8,0c0-1.4,0-2.8,0.1-4.2c-1.6,1.1-2.8,2.7-4.5,3.5c-2.8,1.5-6.1,1.5-9.2,1.1
	c-5.7-0.9-10.4-5.4-12.1-10.8c-1.3-4.2-1.3-8.8,0.3-12.9C451.3,246.6,455.8,242.6,461.1,241.7z M462.5,249.6
	c-5.4,1.9-7.4,9.1-4.5,13.9c1.8,3.5,6.2,5.3,10,4.3c3.3-0.7,5.9-3.5,6.8-6.7c1.4-4.4-1.1-9.7-5.3-11.5
	C467.2,248.9,464.7,248.8,462.5,249.6z"/>
<path d="M179.1,245.8c3.4-3.2,8.4-3.6,12.9-3.6c4.1,0.1,8.1-0.2,12.2,0.1c-0.1,10.9,0,21.7,0,32.6c-2.7,0-5.5,0-8.2,0
	c0-3.8,0-7.6,0-11.4c-1.7,0.3-3.5,0.7-5.3,0.6c-2.5,3.5-4.6,7.3-7.1,10.8c-3-0.1-6,0-9.1,0c2.6-4,5.3-7.9,8.1-11.8
	c-2.8-1.2-5.5-3.5-6.2-6.6C175.6,252.8,176.1,248.5,179.1,245.8z M186.5,249.8c-2.3,1.1-2.7,4.4-1.3,6.3c1.1,1.2,2.7,1.6,4.3,1.7
	c2.1,0,4.3,0.1,6.4-0.4c0-2.8,0.1-5.6-0.1-8.4C192.7,249,189.4,248.5,186.5,249.8z"/>
<path d="M382.6,242.2c2.8,0,5.5,0,8.3,0c0.1,3.7,0,7.4,0,11.1c0,2.2,1.5,4.3,3.7,4.8c2.9,0.5,6,0.2,8.7-1c0-5,0-10,0-14.9
	c2.8,0,5.6,0,8.4,0c0,10.9,0,21.8,0,32.7c-2.8,0-5.6,0-8.4,0c0-3.7,0-7.3,0-11c-4.9,2.7-11.1,2.8-16,0c-3.6-1.9-4.7-6.4-4.7-10.2
	C382.6,249.9,382.5,246.1,382.6,242.2z"/>
<path d="M418,242.2c2.8-0.2,5.6,0,8.4-0.1c0.1,4.3,0.1,8.6,0,13c4.2-3.9,7.8-8.5,11.9-12.6c0.5-0.5,1.2-0.2,1.8-0.3c3,0,6,0,9.1,0
	c-4.9,5.1-9.7,10.1-14.7,15.1c5.1,6,10.3,11.8,15.5,17.7c-3.4,0-6.9,0-10.3,0c-4.4-4.7-8.4-9.8-12.7-14.6c-0.2-0.1-0.5-0.4-0.6-0.5
	c0.1,5,0.1,10,0.1,15c-2.8,0-5.6,0-8.4,0C418.1,264,418.2,253.1,418,242.2z"/>
</svg>
