<svg width="365" height="184" viewBox="0 0 365 184" fill="none" xmlns="http://www.w3.org/2000/svg">
  <path d="M36.4704 4.51189C37.0539 3.29218 37.2857 1.72186 38.5237 0.960938C39.0735 0.968397 39.6083 1.0803 40.1207 1.3041C58.0353 8.45824 75.3253 17.4475 90.7042 29.1411C90.8201 29.3985 90.936 29.6633 91.052 29.9244C91.1193 29.7304 91.2539 29.3388 91.3175 29.1448C91.4035 29.3947 91.4933 29.6446 91.5831 29.8945C102.897 38.6899 113.107 49.4472 119.102 62.5992C122.068 69.1826 123.605 76.3815 123.811 83.5842C123.56 86.087 123.519 88.6197 122.992 91.0889C121.686 98.0939 118.373 104.853 113.069 109.705C110.35 112.701 106.835 114.815 103.3 116.71C96.6096 119.702 89.354 121.619 81.9974 121.705C78.1452 122.369 74.2781 121.563 70.4147 121.552C66.0239 121.123 61.6668 120.392 57.3658 119.418C54.3626 118.766 51.2995 118.038 48.6105 116.509C46.056 114.89 43.7111 112.577 42.877 109.597C41.5793 105.669 43.3071 100.91 46.9349 98.8473C49.8035 97.0345 53.3864 97.2024 56.6141 97.6276C61.5284 98.8361 66.4615 100.239 71.5516 100.38C74.7942 100.351 78.0817 100.593 81.2756 99.9067C86.5602 98.9219 91.7476 96.2699 94.7883 91.7118C97.036 88.601 97.7915 84.7367 98.0907 80.9881C98.3637 74.621 97.1893 68.1308 94.3095 62.4127C92.1403 57.8621 89.2044 53.6957 85.8048 49.9806C83.931 47.6419 81.7431 45.5717 79.4281 43.6769C75.7292 40.3647 71.7424 37.3918 67.6209 34.6279C65.8631 33.4269 63.8884 32.5018 62.3437 31.0173C62.34 31.1889 62.3363 31.5246 62.3325 31.6961C62.2054 31.4425 62.0819 31.1926 61.9585 30.9427C60.0025 30.0736 58.2671 28.8091 56.3822 27.8057C52.8591 25.758 49.149 24.0646 45.5437 22.1697C41.9196 20.5024 37.929 18.7903 35.8645 15.1573C34.0506 11.8003 35.0978 7.82413 36.4704 4.51189Z" fill="black" />
  <path d="M36.0292 63.7144C45.2521 62.5432 54.6432 62.9908 63.7688 64.7215C67.6771 65.5719 71.7051 66.2247 75.3104 68.0561C78.2351 69.5854 80.7559 72.1479 81.7283 75.3483C82.48 78.5001 81.8367 82.0921 79.5666 84.5017C77.2702 86.7546 73.964 87.8139 70.7776 87.6461C68.8814 87.5454 67.0189 87.1388 65.205 86.6129C60.3317 85.2365 55.2865 84.5166 50.2337 84.2891C46.505 84.4383 42.7238 84.8411 39.1933 86.1056C36.3583 87.2544 33.5608 88.7091 31.5225 91.0441C27.4609 95.0016 26.4885 100.914 26.3725 106.333C26.6942 110.205 26.9896 114.144 28.351 117.818C31.1784 126.349 36.938 133.544 43.3409 139.702C52.5376 148.016 63.1405 154.618 74.1548 160.251C77.6891 162.183 81.4141 163.76 84.9222 165.737C87.2859 167.461 89.6421 169.949 89.4888 173.089C89.8216 176.894 88.1686 180.441 86.609 183.802C85.6403 183.835 84.6604 183.768 83.7815 183.324C78.7101 181.131 73.5302 179.177 68.6308 176.607C65.8221 175.424 63.1068 174.048 60.4701 172.53C56.9994 170.911 53.798 168.815 50.4469 166.987C42.5929 162.179 34.9521 156.972 28.0032 150.922C22.5727 146.226 17.4676 141.09 13.2377 135.271C12.9871 135.174 12.7365 135.081 12.4859 134.987C12.6804 134.92 13.0694 134.786 13.2639 134.719C12.9834 134.614 12.7066 134.517 12.4298 134.417C11.1882 132.358 9.76321 130.411 8.54023 128.34C4.37761 121.168 1.62871 113.122 0.921852 104.845C0.850792 102.6 0.843312 100.347 0.925592 98.0975C1.66237 90.4473 4.39631 82.7934 9.62109 77.0342C11.4088 75.352 12.9908 73.4236 15.0329 72.0286C21.1515 67.4854 28.5604 64.9453 36.0292 63.7144Z" fill="black" />
  <path d="M146.61 67.0006C151.603 65.9339 156.82 66.4598 161.66 67.9742C164.745 69.0559 167.498 70.947 169.914 73.1216C171.728 75.1283 173.28 77.4073 174.323 79.9102C176.979 86.572 176.051 94.6549 171.586 100.336C171.593 100.504 171.604 100.843 171.608 101.011C171.544 100.862 171.41 100.567 171.342 100.418C171.29 100.582 171.182 100.914 171.125 101.082C168.881 103.502 166.263 105.599 163.178 106.852C155.141 110.067 145.641 109.176 138.288 104.648C137.72 104.304 137.839 103.536 137.768 102.98C137.78 100.873 137.697 98.7616 137.813 96.6616C138.161 96.0275 138.905 96.4639 139.425 96.6094C142.387 97.9298 145.316 99.5113 148.573 99.9552C152.152 100.47 155.997 100.705 159.344 99.0861C162.265 97.5568 164.794 94.6474 164.868 91.2382C161.57 90.8241 158.241 91.1337 154.931 91.033C152.526 90.9472 150.107 91.227 147.713 90.9211C147.092 90.9137 146.782 90.2721 146.786 89.735C146.595 87.8849 146.651 86.0125 146.946 84.1773C147.736 84.0393 148.525 83.8863 149.333 83.8826C154.423 83.8528 159.513 83.9572 164.599 83.8267C164.876 82.0325 163.803 80.4809 162.71 79.1791C160.496 76.8404 157.422 75.4155 154.228 75.0724C150.282 74.6471 146.217 75.1619 142.574 76.7621C141.157 77.3365 139.878 78.2391 138.374 78.5898C138.172 75.8333 138.251 73.0656 138.326 70.3054C140.611 68.295 143.696 67.5863 146.61 67.0006Z" fill="black" />
  <path d="M240.951 67.0901C244.007 66.5007 247.152 66.1986 250.249 66.6462C253.843 67.1348 257.579 67.8398 260.59 69.9808C260.979 72.7075 260.99 75.5087 260.616 78.2428C260.291 78.2129 259.64 78.1533 259.315 78.1234C254.209 75.0574 247.848 74.1062 242.088 75.643C239.205 76.3778 236.841 78.3733 235.083 80.7009C232.97 83.8303 232.768 87.9035 233.688 91.4768C234.866 95.3747 238.281 98.2692 242.103 99.4739C246.138 100.679 250.548 100.425 254.479 98.9443C256.371 98.2169 258.211 97.359 260.036 96.4788C260.362 96.4601 261.016 96.4228 261.345 96.4079C261.398 98.5974 261.405 100.794 261.386 102.988C261.413 103.719 261.173 104.532 260.5 104.912C255.32 107.93 249.172 109.306 243.199 108.59C238.034 108.15 232.895 106.084 229.245 102.357C223.556 96.6541 221.683 87.4783 224.791 80.0369C227.345 73.2595 233.86 68.3023 240.951 67.0901Z" fill="black" />
  <path d="M340.521 66.4747C342.87 66.2919 345.211 66.6724 347.508 67.1274C353.432 68.1942 358.612 72.2151 361.555 77.3924C363.242 80.7979 364.42 84.5652 364.233 88.4034C363.84 93.3307 362.004 98.3363 358.44 101.861C351.091 109.862 337.795 110.903 328.867 104.976C324.892 102.469 322.076 98.4371 320.561 94.0431C318.826 89.1046 319.207 83.4872 321.522 78.7949C323.579 74.2555 327.405 70.6262 331.878 68.4777C334.597 67.2617 337.582 66.788 340.521 66.4747ZM338.375 75.27C335.229 75.8892 332.361 77.9444 330.909 80.8165C329.473 83.6215 328.983 86.9113 329.526 90.0147C329.933 92.8122 331.197 95.6097 333.449 97.4038C336.568 100.048 341.007 100.712 344.934 99.9141C348.491 99.2912 351.681 96.8667 353.189 93.5881C354.434 91.0666 354.528 88.1609 354.273 85.4119C353.952 81.749 351.734 78.3622 348.6 76.4636C345.499 74.7889 341.778 74.6583 338.375 75.27Z" fill="black" />
  <path d="M207.314 69.3729C209.853 66.829 213.788 66.4038 217.18 67.0304C217.629 69.3057 217.457 71.7004 216.776 73.916C215.534 74.3487 214.214 74.7553 213.283 75.7325C211.353 77.5826 210.702 80.2645 209.655 82.633C208.941 84.2108 207.531 85.3559 206.843 86.9412C206.585 87.5715 207.291 87.9557 207.688 88.3026C210.429 90.1863 212.213 93.1292 213.541 96.1132C214.88 99.3733 216.488 102.51 217.913 105.733C218.265 106.501 218.452 107.329 218.627 108.157C215.202 108.113 211.768 108.344 208.357 108.008C206.727 105.688 205.986 102.909 204.692 100.41C203.23 97.5344 202.456 94.0356 199.651 92.0923C197.702 90.6749 195.151 91.0367 192.9 91.2083C192.328 96.8406 193.117 102.54 192.455 108.165C189.5 108.161 186.542 108.213 183.591 108.131C183.352 106.546 183.374 104.946 183.393 103.349C183.397 93.2747 183.393 83.2 183.393 73.1252C183.404 71.2155 183.284 69.2945 183.61 67.4034C186.538 66.9707 189.556 66.967 192.485 67.4072C193.083 72.7112 192.343 78.0824 192.9 83.3939C194.557 83.5991 196.281 83.7632 197.908 83.2932C199.782 82.2675 200.937 80.3465 201.898 78.5114C203.424 75.3185 204.928 72.0324 207.314 69.3729Z" fill="black" />
  <path d="M269.895 68.3099C269.824 67.1797 271.186 67.1759 271.993 67.1349C274.05 67.1722 276.171 66.9037 278.183 67.4296C279.881 68.6941 280.898 70.6225 282.331 72.1518C283.685 73.5766 284.739 75.2477 286.074 76.6912C287.529 78.2652 288.651 80.119 290.215 81.5998C290.544 81.5887 291.198 81.5663 291.527 81.5514C295.189 77.0754 298.824 72.5807 302.482 68.0973C303.196 67.0678 304.569 67.1983 305.676 67.1237C307.445 67.1722 309.262 66.9372 311.005 67.3662C311.761 67.7429 311.503 68.7202 311.6 69.4102C311.592 80.354 311.6 91.2979 311.596 102.245C311.589 104.166 311.664 106.095 311.473 108.012C308.372 108.266 305.227 108.284 302.134 108.001C301.917 101.6 302.097 95.192 302.037 88.7876C301.977 86.9673 302.216 85.121 301.839 83.3231C301.633 83.3343 301.221 83.3604 301.016 83.3716C298.024 87.1202 295.032 90.8614 291.969 94.5504C291.531 95.2927 290.547 94.916 289.852 95.0241C287.245 91.6373 284.459 88.3885 281.811 85.0315C281.205 84.3116 280.681 83.3753 279.653 83.2224C279.38 85.1881 279.485 87.1762 279.473 89.1531C279.47 95.4941 279.477 101.831 279.47 108.172C276.302 108.09 273.115 108.355 269.959 108.008C269.693 101.238 269.914 94.4534 269.843 87.676C269.88 81.2231 269.772 74.7628 269.895 68.3099Z" fill="black" />
</svg>