<?xml version="1.0" encoding="utf-8"?>
<!-- Generator: Adobe Illustrator 27.8.1, SVG Export Plug-In . SVG Version: 6.00 Build 0)  -->
<svg version="1.1" id="Слой_1" xmlns="http://www.w3.org/2000/svg" xmlns:xlink="http://www.w3.org/1999/xlink" x="0px" y="0px"
	 viewBox="0 0 500 500" style="enable-background:new 0 0 500 500;" xml:space="preserve">
<path d="M103.6,161.9c0.6-1.2,0.8-2.8,2.1-3.6c0.5,0,1.1,0.1,1.6,0.3c17.9,7.2,35.2,16.1,50.6,27.8c0.1,0.3,0.2,0.5,0.3,0.8
	c0.1-0.2,0.2-0.6,0.3-0.8c0.1,0.2,0.2,0.5,0.3,0.7c11.3,8.8,21.5,19.6,27.5,32.7c3,6.6,4.5,13.8,4.7,21c-0.3,2.5-0.3,5-0.8,7.5
	c-1.3,7-4.6,13.8-9.9,18.6c-2.7,3-6.2,5.1-9.8,7c-6.7,3-13.9,4.9-21.3,5c-3.9,0.7-7.7-0.1-11.6-0.2c-4.4-0.4-8.7-1.2-13-2.1
	c-3-0.7-6.1-1.4-8.8-2.9c-2.6-1.6-4.9-3.9-5.7-6.9c-1.3-3.9,0.4-8.7,4.1-10.7c2.9-1.8,6.5-1.6,9.7-1.2c4.9,1.2,9.8,2.6,14.9,2.8
	c3.2,0,6.5,0.2,9.7-0.5c5.3-1,10.5-3.6,13.5-8.2c2.2-3.1,3-7,3.3-10.7c0.3-6.4-0.9-12.9-3.8-18.6c-2.2-4.6-5.1-8.7-8.5-12.4
	c-1.9-2.3-4.1-4.4-6.4-6.3c-3.7-3.3-7.7-6.3-11.8-9c-1.8-1.2-3.7-2.1-5.3-3.6c0,0.2,0,0.5,0,0.7c-0.1-0.3-0.3-0.5-0.4-0.8
	c-2-0.9-3.7-2.1-5.6-3.1c-3.5-2-7.2-3.7-10.8-5.6c-3.6-1.7-7.6-3.4-9.7-7C101.2,169.2,102.3,165.2,103.6,161.9z"/>
<path d="M103.2,221.1c9.2-1.2,18.6-0.7,27.7,1c3.9,0.9,7.9,1.5,11.5,3.3c2.9,1.5,5.4,4.1,6.4,7.3c0.8,3.2,0.1,6.7-2.2,9.2
	c-2.3,2.3-5.6,3.3-8.8,3.1c-1.9-0.1-3.8-0.5-5.6-1c-4.9-1.4-9.9-2.1-15-2.3c-3.7,0.1-7.5,0.6-11,1.8c-2.8,1.1-5.6,2.6-7.7,4.9
	c-4.1,4-5,9.9-5.2,15.3c0.3,3.9,0.6,7.8,2,11.5c2.8,8.5,8.6,15.7,15,21.9c9.2,8.3,19.8,14.9,30.8,20.5c3.5,1.9,7.3,3.5,10.8,5.5
	c2.4,1.7,4.7,4.2,4.6,7.4c0.3,3.8-1.3,7.4-2.9,10.7c-1,0-1.9,0-2.8-0.5c-5.1-2.2-10.3-4.1-15.2-6.7c-2.8-1.2-5.5-2.6-8.2-4.1
	c-3.5-1.6-6.7-3.7-10-5.5c-7.9-4.8-15.5-10-22.4-16.1c-5.4-4.7-10.5-9.8-14.8-15.7c-0.3-0.1-0.5-0.2-0.8-0.3
	c0.2-0.1,0.6-0.2,0.8-0.3c-0.3-0.1-0.6-0.2-0.8-0.3c-1.2-2.1-2.7-4-3.9-6.1c-4.2-7.2-6.9-15.2-7.6-23.5c-0.1-2.2-0.1-4.5,0-6.7
	c0.7-7.7,3.5-15.3,8.7-21.1c1.8-1.7,3.4-3.6,5.4-5C88.3,224.9,95.7,222.3,103.2,221.1z"/>
<path d="M213.8,224.4c5-1.1,10.2-0.5,15.1,1c3.1,1.1,5.8,3,8.3,5.1c1.8,2,3.4,4.3,4.4,6.8c2.7,6.7,1.7,14.7-2.7,20.4
	c0,0.2,0,0.5,0,0.7c-0.1-0.1-0.2-0.4-0.3-0.6c-0.1,0.2-0.2,0.5-0.2,0.7c-2.2,2.4-4.9,4.5-7.9,5.8c-8,3.2-17.5,2.3-24.9-2.2
	c-0.6-0.3-0.4-1.1-0.5-1.7c0-2.1-0.1-4.2,0-6.3c0.3-0.6,1.1-0.2,1.6-0.1c3,1.3,5.9,2.9,9.1,3.3c3.6,0.5,7.4,0.7,10.8-0.9
	c2.9-1.5,5.5-4.4,5.5-7.8c-3.3-0.4-6.6-0.1-9.9-0.2c-2.4-0.1-4.8,0.2-7.2-0.1c-0.6,0-0.9-0.6-0.9-1.2c-0.2-1.9-0.1-3.7,0.2-5.6
	c0.8-0.1,1.6-0.3,2.4-0.3c5.1,0,10.2,0.1,15.3-0.1c0.3-1.8-0.8-3.3-1.9-4.6c-2.2-2.3-5.3-3.8-8.5-4.1c-3.9-0.4-8,0.1-11.7,1.7
	c-1.4,0.6-2.7,1.5-4.2,1.8c-0.2-2.8-0.1-5.5,0-8.3C207.8,225.7,210.9,225,213.8,224.4z"/>
<path d="M308.1,224.5c3.1-0.6,6.2-0.9,9.3-0.4c3.6,0.5,7.3,1.2,10.3,3.3c0.4,2.7,0.4,5.5,0,8.3c-0.3,0-1-0.1-1.3-0.1
	c-5.1-3.1-11.5-4-17.2-2.5c-2.9,0.7-5.2,2.7-7,5.1c-2.1,3.1-2.3,7.2-1.4,10.8c1.2,3.9,4.6,6.8,8.4,8c4,1.2,8.4,1,12.4-0.5
	c1.9-0.7,3.7-1.6,5.6-2.5c0.3,0,1-0.1,1.3-0.1c0.1,2.2,0.1,4.4,0,6.6c0,0.7-0.2,1.5-0.9,1.9c-5.2,3-11.3,4.4-17.3,3.7
	c-5.2-0.4-10.3-2.5-14-6.2c-5.7-5.7-7.6-14.9-4.5-22.3C294.5,230.6,301,225.7,308.1,224.5z"/>
<path d="M407.7,223.8c2.3-0.2,4.7,0.2,7,0.7c5.9,1.1,11.1,5.1,14,10.3c1.7,3.4,2.9,7.2,2.7,11c-0.4,4.9-2.2,9.9-5.8,13.5
	c-7.3,8-20.6,9-29.6,3.1c-4-2.5-6.8-6.5-8.3-10.9c-1.7-4.9-1.4-10.6,1-15.2c2.1-4.5,5.9-8.2,10.4-10.3
	C401.8,224.6,404.8,224.2,407.7,223.8z M405.5,232.6c-3.1,0.6-6,2.7-7.5,5.5c-1.4,2.8-1.9,6.1-1.4,9.2c0.4,2.8,1.7,5.6,3.9,7.4
	c3.1,2.6,7.6,3.3,11.5,2.5c3.6-0.6,6.7-3,8.3-6.3c1.2-2.5,1.3-5.4,1.1-8.2c-0.3-3.7-2.5-7-5.7-8.9
	C412.7,232.2,408.9,232,405.5,232.6z"/>
<path d="M274.5,226.7c2.5-2.5,6.5-3,9.9-2.3c0.4,2.3,0.3,4.7-0.4,6.9c-1.2,0.4-2.6,0.8-3.5,1.8c-1.9,1.9-2.6,4.5-3.6,6.9
	c-0.7,1.6-2.1,2.7-2.8,4.3c-0.3,0.6,0.4,1,0.8,1.4c2.7,1.9,4.5,4.8,5.9,7.8c1.3,3.3,2.9,6.4,4.4,9.6c0.4,0.8,0.5,1.6,0.7,2.4
	c-3.4,0-6.9,0.2-10.3-0.1c-1.6-2.3-2.4-5.1-3.7-7.6c-1.5-2.9-2.2-6.4-5-8.3c-1.9-1.4-4.5-1.1-6.8-0.9c-0.6,5.6,0.2,11.3-0.4,17
	c-3,0-5.9,0-8.9,0c-0.2-1.6-0.2-3.2-0.2-4.8c0-10.1,0-20.1,0-30.2c0-1.9-0.1-3.8,0.2-5.7c2.9-0.4,5.9-0.4,8.9,0
	c0.6,5.3-0.1,10.7,0.4,16c1.7,0.2,3.4,0.4,5-0.1c1.9-1,3-2.9,4-4.8C270.6,232.7,272.1,229.4,274.5,226.7z"/>
<path d="M337.1,225.7c-0.1-1.1,1.3-1.1,2.1-1.2c2.1,0,4.2-0.2,6.2,0.3c1.7,1.3,2.7,3.2,4.1,4.7c1.4,1.4,2.4,3.1,3.7,4.5
	c1.5,1.6,2.6,3.4,4.1,4.9c0.3,0,1,0,1.3,0c3.7-4.5,7.3-9,11-13.5c0.7-1,2.1-0.9,3.2-1c1.8,0,3.6-0.2,5.3,0.2c0.8,0.4,0.5,1.4,0.6,2
	c0,10.9,0,21.9,0,32.8c0,1.9,0.1,3.8-0.1,5.8c-3.1,0.3-6.2,0.3-9.3,0c-0.2-6.4,0-12.8-0.1-19.2c-0.1-1.8,0.2-3.7-0.2-5.5
	c-0.2,0-0.6,0-0.8,0c-3,3.7-6,7.5-9,11.2c-0.4,0.7-1.4,0.4-2.1,0.5c-2.6-3.4-5.4-6.6-8-10c-0.6-0.7-1.1-1.7-2.2-1.8
	c-0.3,2-0.2,4-0.2,5.9c0,6.3,0,12.7,0,19c-3.2-0.1-6.4,0.2-9.5-0.2c-0.3-6.8,0-13.6-0.1-20.3C337.1,238.6,336.9,232.1,337.1,225.7z"
	/>
</svg>
