<svg width="372" height="68" viewBox="0 0 372 68" fill="none" xmlns="http://www.w3.org/2000/svg">
  <path d="M0.529616 0.795044C12.2096 0.873584 23.8859 0.810003 35.5659 0.828703C35.5435 10.4966 35.5585 20.1645 35.5585 29.8361C35.5398 31.1302 35.6407 32.4392 35.4762 33.7295C34.2719 35.7154 32.4318 37.1965 31.0106 39.0141C23.1192 47.8405 15.269 56.708 7.3813 65.5419C6.90632 66.0356 6.56224 66.72 5.91896 67.0155C4.13124 67.18 2.32856 67.0155 0.533356 67.1015C0.432376 53.6824 0.518396 40.2633 0.492216 26.8441C0.518396 18.1599 0.432376 9.47558 0.529616 0.795044Z" fill="black" />
  <path d="M64.9288 1.14274C65.2803 0.742559 65.8526 0.854757 66.3201 0.813617C67.8048 0.802397 69.2896 0.847282 70.7707 0.794922C70.8716 11.2295 70.7632 21.6641 70.823 32.0987C70.8043 32.9327 70.924 33.8864 70.2845 34.5447C61.7423 44.0817 53.26 53.6785 44.7253 63.223C43.4537 64.4348 42.6047 66.114 41.0788 67.0303C39.2873 67.1687 37.4921 67.0266 35.7007 67.0902C35.5847 56.4125 35.6857 45.7273 35.6483 35.0496C35.5586 34.3128 35.9438 33.7069 36.415 33.1908C45.9258 22.5131 55.4441 11.8391 64.9288 1.14274Z" fill="black" />
  <path d="M100.586 0.914616C102.362 0.686476 104.169 0.892172 105.96 0.806152C106.11 21.825 105.968 42.8475 106.031 63.8663C106.035 64.9434 106.013 66.0205 105.957 67.0939C94.3513 67.0528 82.7461 67.0528 71.1409 67.0939C71.0362 56.0684 71.0586 45.0316 71.1259 34.0061C73.5868 30.8533 76.4255 28.0109 79.0211 24.9703C84.358 18.9638 89.7324 12.9911 95.0357 6.95471C96.9431 4.99495 98.57 2.76966 100.586 0.914616Z" fill="black" />
  <path d="M134.429 0.798614C140.495 0.865934 146.561 0.81358 152.628 0.82854C152.602 11.869 152.624 22.9095 152.617 33.95C152.568 43.4795 152.729 53.0165 152.531 62.5423C152.792 62.2954 153.002 62.0149 153.163 61.7008C159.423 44.5379 165.748 27.4012 172.042 10.2496C173.246 7.10426 174.26 3.88412 175.599 0.791138C187.155 0.858458 198.716 0.850981 210.272 0.794881C210.373 20.198 210.287 39.6049 210.317 59.008C210.299 61.7083 210.362 64.4048 210.272 67.1051C204.303 67.0452 198.331 67.0565 192.362 67.0976C192.201 46.5164 192.38 25.9277 192.276 5.34645C192.137 5.51101 191.857 5.84014 191.715 6.0047C184.279 26.3578 176.781 46.6921 169.323 67.0377C157.692 67.135 146.06 67.0078 134.429 67.1013C134.328 46.0788 134.425 25.0563 134.38 4.03372C134.377 2.95286 134.399 1.87573 134.429 0.798614Z" fill="black" />
  <path d="M220.819 0.794922C232.152 0.873462 243.484 0.809881 254.816 0.828581C261.099 0.776221 267.566 0.944516 273.464 3.36056C278.868 5.44 283.547 9.73726 285.465 15.2762C287.474 21.0545 287.365 27.4499 285.551 33.2619C283.786 38.9354 279.335 43.5768 273.957 45.9816C269.967 47.8553 265.557 48.5659 261.2 48.8988C254.102 48.9586 247.003 48.8464 239.905 48.9512C239.807 54.9987 239.972 61.0501 239.822 67.1014C233.487 67.0528 227.151 67.0453 220.816 67.1051C220.711 46.0826 220.812 25.0563 220.767 4.03376C220.763 2.9529 220.789 1.87204 220.819 0.794922ZM239.89 15.5305C239.871 21.7875 239.871 28.0446 239.893 34.3016C245.993 34.3614 252.097 34.2978 258.197 34.3352C260.059 34.3876 261.933 33.9126 263.56 33.0038C265.583 31.792 266.874 29.6004 267.259 27.3078C267.97 24.0428 267.435 20.228 264.974 17.797C262.636 15.6652 259.33 15.4108 256.316 15.4408C250.84 15.5043 245.361 15.3248 239.89 15.5305Z" fill="black" />
  <path d="M295.623 0.798614C301.69 0.869674 307.756 0.806104 313.822 0.832284C313.796 17.9802 313.818 35.1281 313.811 52.276C313.792 55.7018 313.875 59.1314 313.71 62.5572C313.964 62.3104 314.174 62.0374 314.346 61.7307C319.642 47.2083 325.005 32.7083 330.319 18.1934C332.507 12.4038 334.486 6.53204 336.797 0.791138C348.354 0.854718 359.91 0.850981 371.471 0.794881C371.564 13.3426 371.482 25.8903 371.512 38.438C371.482 47.9937 371.564 57.5494 371.471 67.1051C365.501 67.0415 359.532 67.0602 353.563 67.0976C353.388 46.5089 353.59 25.9165 353.466 5.3315C353.328 5.4998 353.055 5.84013 352.916 6.01217C345.47 26.354 337.983 46.6922 330.518 67.034C318.886 67.1387 307.255 67.0041 295.623 67.1013C295.522 46.0788 295.62 25.0563 295.575 4.03372C295.571 2.95286 295.59 1.87573 295.623 0.798614Z" fill="black" />
</svg>