<?xml version="1.0" encoding="utf-8"?>
<!-- Generator: Adobe Illustrator 27.8.1, SVG Export Plug-In . SVG Version: 6.00 Build 0)  -->
<svg version="1.1" id="Слой_1" xmlns="http://www.w3.org/2000/svg" xmlns:xlink="http://www.w3.org/1999/xlink" x="0px" y="0px"
	 viewBox="0 0 500 500" style="enable-background:new 0 0 500 500;" xml:space="preserve">
<path d="M64.3,216.6c11.7,0.1,23.4,0,35,0c0,9.7,0,19.3,0,29c0,1.3,0.1,2.6-0.1,3.9c-1.2,2-3,3.5-4.5,5.3
	c-7.9,8.8-15.7,17.7-23.6,26.5c-0.5,0.5-0.8,1.2-1.5,1.5c-1.8,0.2-3.6,0-5.4,0.1c-0.1-13.4,0-26.8,0-40.3
	C64.3,234,64.2,225.3,64.3,216.6z"/>
<path d="M128.7,217c0.4-0.4,0.9-0.3,1.4-0.3c1.5,0,3,0,4.5,0c0.1,10.4,0,20.9,0.1,31.3c0,0.8,0.1,1.8-0.5,2.4
	c-8.5,9.5-17,19.1-25.6,28.7c-1.3,1.2-2.1,2.9-3.6,3.8c-1.8,0.1-3.6,0-5.4,0.1c-0.1-10.7,0-21.4-0.1-32c-0.1-0.7,0.3-1.3,0.8-1.9
	C109.7,238.3,119.2,227.7,128.7,217z"/>
<path d="M164.4,216.8c1.8-0.2,3.6,0,5.4-0.1c0.2,21,0,42,0.1,63.1c0,1.1,0,2.2-0.1,3.2c-11.6,0-23.2,0-34.8,0
	c-0.1-11-0.1-22.1,0-33.1c2.5-3.2,5.3-6,7.9-9c5.3-6,10.7-12,16-18C160.7,220.8,162.4,218.6,164.4,216.8z"/>
<path d="M198.2,216.6c6.1,0.1,12.1,0,18.2,0c0,11,0,22.1,0,33.1c0,9.5,0.1,19.1-0.1,28.6c0.3-0.2,0.5-0.5,0.6-0.8
	c6.3-17.2,12.6-34.3,18.9-51.5c1.2-3.1,2.2-6.4,3.6-9.5c11.6,0.1,23.1,0.1,34.7,0c0.1,19.4,0,38.8,0,58.2c0,2.7,0,5.4,0,8.1
	c-6-0.1-11.9,0-17.9,0c-0.2-20.6,0-41.2-0.1-61.8c-0.1,0.2-0.4,0.5-0.6,0.7c-7.4,20.4-14.9,40.7-22.4,61c-11.6,0.1-23.3,0-34.9,0.1
	c-0.1-21,0-42,0-63.1C198.2,218.8,198.2,217.7,198.2,216.6z"/>
<path d="M284.6,216.6c11.3,0.1,22.7,0,34,0c6.3-0.1,12.8,0.1,18.6,2.5c5.4,2.1,10.1,6.4,12,11.9c2,5.8,1.9,12.2,0.1,18
	c-1.8,5.7-6.2,10.3-11.6,12.7c-4,1.9-8.4,2.6-12.8,2.9c-7.1,0.1-14.2-0.1-21.3,0.1c-0.1,6,0.1,12.1-0.1,18.2c-6.3,0-12.7-0.1-19,0
	c-0.1-21,0-42,0-63.1C284.6,218.8,284.6,217.7,284.6,216.6z M303.7,231.4c0,6.3,0,12.5,0,18.8c6.1,0.1,12.2,0,18.3,0
	c1.9,0.1,3.7-0.4,5.4-1.3c2-1.2,3.3-3.4,3.7-5.7c0.7-3.3,0.2-7.1-2.3-9.5c-2.3-2.1-5.6-2.4-8.7-2.4
	C314.6,231.3,309.2,231.2,303.7,231.4z"/>
<path d="M359.4,216.6c6.1,0.1,12.1,0,18.2,0c0,17.1,0,34.3,0,51.4c0,3.4,0.1,6.9-0.1,10.3c0.3-0.2,0.5-0.5,0.6-0.8
	c5.3-14.5,10.7-29,16-43.5c2.2-5.8,4.2-11.7,6.5-17.4c11.6,0.1,23.1,0.1,34.7,0c0.1,12.5,0,25.1,0,37.6c0,9.6,0.1,19.1,0,28.7
	c-6-0.1-11.9,0-17.9,0c-0.2-20.6,0-41.2-0.1-61.8c-0.1,0.2-0.4,0.5-0.6,0.7c-7.4,20.3-14.9,40.7-22.4,61c-11.6,0.1-23.3,0-34.9,0.1
	c-0.1-21,0-42,0-63.1C359.4,218.8,359.4,217.7,359.4,216.6z"/>
</svg>
