<svg width="226" height="120" viewBox="0 0 226 120" fill="none" xmlns="http://www.w3.org/2000/svg">
  <path d="M33.1137 1.99257C36.9285 0.646169 40.9677 0.982771 44.9321 0.907971C49.7941 0.870571 54.6561 0.982771 59.5555 1.09497C61.3133 1.16977 62.9963 1.65597 64.7541 1.76817C70.5137 2.06737 76.1985 2.85277 81.8833 3.71297C85.3241 4.23657 88.6901 5.13417 92.0561 6.06917C95.6091 7.11637 99.1995 8.08877 102.453 9.88397C107.764 12.315 112.589 16.0924 115.618 21.1414C116.665 22.8244 117.75 24.5448 118.161 26.527C116.403 26.6392 114.608 26.7888 112.925 26.4148C112.028 25.1806 111.467 23.722 110.532 22.5252C107.278 17.9624 102.304 14.8956 97.1051 13.0256C90.4479 10.1458 83.1923 9.06118 76.0489 8.08878C67.9331 7.11638 59.8173 6.36838 51.6641 6.03178C44.4459 5.99438 37.0407 5.65778 30.0469 7.90178C25.3345 9.47257 20.6595 11.8662 17.6675 15.9802C13.5161 21.6276 11.7209 28.5466 10.0379 35.2786C7.90609 46.0872 6.67189 57.0828 6.07349 68.1158C5.47509 76.83 5.84909 85.8434 9.02809 94.1088C9.96309 96.6894 11.6835 98.896 13.5161 100.916C15.9471 103.646 19.2383 105.404 22.5669 106.825C29.8599 109.966 37.7887 111.051 45.6053 112.098C48.8965 112.397 52.1129 112.996 55.4041 113.071C57.9099 113.183 60.3783 113.744 62.8841 113.744C67.7461 113.744 72.6081 113.781 77.4701 113.781C79.8263 113.781 82.1825 113.893 84.5013 113.482C87.5307 112.958 90.5975 112.51 93.4025 111.201C96.2823 109.892 99.2369 108.47 101.406 106.077C103.725 103.534 105.782 100.691 107.053 97.5122C107.652 96.1284 108.026 94.595 108.998 93.3608C110.606 93.0616 112.289 93.1364 113.898 93.3608C113.598 96.3528 112.289 99.1204 110.943 101.738C108.886 105.815 105.969 109.443 102.341 112.248C99.4239 114.604 95.9083 115.988 92.3553 117.11C88.9893 118.157 85.4363 118.307 81.9581 118.942C77.6197 119.204 73.2439 118.98 68.8681 119.055C66.1005 119.129 63.4077 118.606 60.6401 118.456C57.7603 118.194 54.8431 118.381 51.9633 118.007C43.0621 116.998 34.0487 116.175 25.5589 113.145C20.7717 111.612 16.0967 109.443 12.0949 106.339C7.23288 102.449 3.94169 96.8016 2.48309 90.7802C1.17409 85.3946 0.650484 79.822 0.575684 74.2868C0.949684 68.6768 1.06188 63.0294 1.69768 57.4568C2.93188 46.349 4.35308 35.129 7.79388 24.47C9.55168 18.9722 12.3941 13.7362 16.6203 9.77178C20.9961 5.20898 27.0549 2.92757 33.1137 1.99257Z" fill="black" />
  <path d="M213.98 32.1744C209.193 32.1744 205.229 34.0818 201.451 39.804L186.416 62.4684L187.763 44.7782C188.249 38.1584 184.098 32.1744 176.655 32.1744C169.736 32.1744 165.435 36.8494 165.024 42.7212L162.667 75.0348C162.106 83.188 166.295 87.7134 173.139 87.7134C179.984 87.7134 183.911 83.0384 186.903 78.513L201.414 56.5592L200.105 75.0722C199.544 82.6644 203.508 87.7508 210.951 87.7508C217.832 87.7508 222.246 83.6742 222.732 77.5406L225.125 44.8156C225.649 38.4576 222.545 32.1744 213.98 32.1744ZM156.796 72.1176C156.796 64.7124 151.148 59.9626 143.743 58.9902C150.662 57.5316 156.758 52.9688 156.758 45.5262C156.758 37.2982 150.363 32.6232 138.657 32.6606H114.945C103.987 32.6606 99.9102 37.0738 99.05 49.154L97.6288 69.35C96.6564 82.9262 100.546 87.1898 113.935 87.1898H136.674C149.69 87.2272 156.796 81.8416 156.796 72.1176ZM134.356 70.659C134.356 75.334 130.728 77.5406 124.706 77.5406L118.311 77.5032C118.311 77.5032 119.321 70.9208 119.957 64.3384H125.828C130.84 64.3384 134.356 66.3954 134.356 70.659ZM134.617 48.5556C134.617 52.5948 131.364 54.9884 125.567 54.9884H120.742C120.742 54.9884 121.228 47.658 120.892 42.3846H126.202C131.513 42.3846 134.617 44.6286 134.617 48.5556Z" fill="black" />
  <path d="M81.1354 32.2491C76.3108 32.2491 72.4586 34.194 68.6064 39.8788L53.609 62.5058L54.9928 44.9278C55.4042 38.2706 51.2528 32.2865 43.8476 32.2865C36.966 32.2865 32.7024 36.8868 32.2536 42.796L29.8974 75.1843C29.3738 83.2253 33.5252 87.8256 40.1824 87.8256C46.8396 87.8256 51.0284 83.001 54.1326 78.5878L68.6064 56.5965L67.3348 75.147C66.699 82.6644 70.7756 87.7881 78.1808 87.7881C85.0624 87.7881 89.5504 83.7115 89.9618 77.6153L92.318 44.9278C92.8416 38.4576 89.7374 32.2491 81.1354 32.2491Z" fill="url(#paint0_linear_720_777)" />
  <path d="M54.9551 44.9278L53.5713 62.5058L54.0949 78.5878C50.9907 83.001 46.8019 87.8256 40.1447 87.8256C33.4875 87.8256 29.2987 83.2253 29.8597 75.1843L32.2159 42.796C32.6273 36.8868 36.9283 32.2866 43.8099 32.2866C51.2151 32.2492 55.4039 38.2706 54.9551 44.9278Z" fill="url(#paint1_linear_720_777)" />
  <path d="M54.9929 43.9928C54.9929 37.8592 51.0285 32.2491 43.7355 32.2491C36.4425 32.2491 32.2163 37.7096 32.2163 43.6188C32.2163 49.9394 36.9661 54.8761 43.6233 54.8761C50.2805 54.8761 54.9929 50.3134 54.9929 43.9928Z" fill="black" />
  <defs>
    <linearGradient id="paint0_linear_720_777" x1="58.6267" y1="59.7678" x2="35.4312" y2="56.8237" gradientUnits="userSpaceOnUse">
      <stop offset="0.15" />
      <stop offset="0.62" stop-opacity="0.6" />
      <stop offset="1" stop-opacity="0" />
    </linearGradient>
    <linearGradient id="paint1_linear_720_777" x1="38.1868" y1="87.5656" x2="44.4798" y2="53.2441" gradientUnits="userSpaceOnUse">
      <stop offset="0.15" />
      <stop offset="0.62" stop-opacity="0.6" />
      <stop offset="1" stop-opacity="0" />
    </linearGradient>
  </defs>
</svg>