<?xml version="1.0" encoding="utf-8"?>
<!-- Generator: Adobe Illustrator 27.8.1, SVG Export Plug-In . SVG Version: 6.00 Build 0)  -->
<svg version="1.1" id="Слой_1" xmlns="http://www.w3.org/2000/svg" xmlns:xlink="http://www.w3.org/1999/xlink" x="0px" y="0px"
	 viewBox="0 0 500 500" style="enable-background:new 0 0 500 500;" xml:space="preserve">
<style type="text/css">
	.st0{fill:url(#SVGID_1_);}
	.st1{fill:url(#SVGID_00000072238447353288870990000015525912601850677418_);}
</style>
<path d="M169.8,191.8c3.8-1.3,7.9-1,11.8-1.1c4.9,0,9.7,0.1,14.6,0.2c1.8,0.1,3.4,0.6,5.2,0.7c5.8,0.3,11.4,1.1,17.1,1.9
	c3.4,0.5,6.8,1.4,10.2,2.4c3.6,1,7.1,2,10.4,3.8c5.3,2.4,10.1,6.2,13.2,11.3c1,1.7,2.1,3.4,2.5,5.4c-1.8,0.1-3.6,0.3-5.2-0.1
	c-0.9-1.2-1.5-2.7-2.4-3.9c-3.3-4.6-8.2-7.6-13.4-9.5c-6.7-2.9-13.9-4-21.1-4.9c-8.1-1-16.2-1.7-24.4-2.1c-7.2,0-14.6-0.4-21.6,1.9
	c-4.7,1.6-9.4,4-12.4,8.1c-4.2,5.6-5.9,12.6-7.6,19.3c-2.1,10.8-3.4,21.8-4,32.8c-0.6,8.7-0.2,17.7,3,26c0.9,2.6,2.7,4.8,4.5,6.8
	c2.4,2.7,5.7,4.5,9.1,5.9c7.3,3.1,15.2,4.2,23,5.3c3.3,0.3,6.5,0.9,9.8,1c2.5,0.1,5,0.7,7.5,0.7c4.9,0,9.7,0,14.6,0
	c2.4,0,4.7,0.1,7-0.3c3-0.5,6.1-1,8.9-2.3c2.9-1.3,5.8-2.7,8-5.1c2.3-2.5,4.4-5.4,5.6-8.6c0.6-1.4,1-2.9,1.9-4.2
	c1.6-0.3,3.3-0.2,4.9,0c-0.3,3-1.6,5.8-3,8.4c-2.1,4.1-5,7.7-8.6,10.5c-2.9,2.4-6.4,3.7-10,4.9c-3.4,1-6.9,1.2-10.4,1.8
	c-4.3,0.3-8.7,0-13.1,0.1c-2.8,0.1-5.5-0.4-8.2-0.6c-2.9-0.3-5.8-0.1-8.7-0.4c-8.9-1-17.9-1.8-26.4-4.9c-4.8-1.5-9.5-3.7-13.5-6.8
	c-4.9-3.9-8.2-9.5-9.6-15.6c-1.3-5.4-1.8-11-1.9-16.5c0.4-5.6,0.5-11.3,1.1-16.8c1.2-11.1,2.7-22.3,6.1-33
	c1.8-5.5,4.6-10.7,8.8-14.7C157.7,195.1,163.7,192.8,169.8,191.8z"/>
<path d="M350.7,222c-4.8,0-8.8,1.9-12.5,7.6l-15,22.7l1.3-17.7c0.5-6.6-3.7-12.6-11.1-12.6c-6.9,0-11.2,4.7-11.6,10.5l-2.4,32.3
	c-0.6,8.2,3.6,12.7,10.5,12.7c6.8,0,10.8-4.7,13.8-9.2l14.5-22l-1.3,18.5c-0.6,7.6,3.4,12.7,10.8,12.7c6.9,0,11.3-4.1,11.8-10.2
	l2.4-32.7C362.3,228.3,359.2,222,350.7,222z M293.5,262c0-7.4-5.6-12.2-13.1-13.1c6.9-1.5,13-6,13-13.5c0-8.2-6.4-12.9-18.1-12.9
	h-23.7c-11,0-15,4.4-15.9,16.5l-1.4,20.2c-1,13.6,2.9,17.8,16.3,17.8h22.7C286.4,277.1,293.5,271.7,293.5,262z M271,260.5
	c0,4.7-3.6,6.9-9.7,6.9l-6.4,0c0,0,1-6.6,1.6-13.2h5.9C267.5,254.2,271,256.2,271,260.5z M271.3,238.4c0,4-3.3,6.4-9,6.4h-4.8
	c0,0,0.5-7.3,0.1-12.6h5.3C268.2,232.2,271.3,234.5,271.3,238.4z"/>
<linearGradient id="SVGID_1_" gradientUnits="userSpaceOnUse" x1="195.3165" y1="252.3872" x2="172.121" y2="255.3313" gradientTransform="matrix(1 0 0 -1 0 502)">
	<stop  offset="0.15" style="stop-color:#000000"/>
	<stop  offset="0.62" style="stop-color:#000000;stop-opacity:0.6"/>
	<stop  offset="1" style="stop-color:#000000;stop-opacity:0"/>
</linearGradient>
<path class="st0" d="M217.8,222.1c-4.8,0-8.7,1.9-12.5,7.6l-15,22.6l1.4-17.6c0.4-6.7-3.7-12.6-11.1-12.6c-6.9,0-11.1,4.6-11.6,10.5
	l-2.4,32.4c-0.5,8,3.6,12.6,10.3,12.6s10.8-4.8,14-9.2l14.5-22L204,265c-0.6,7.5,3.4,12.6,10.8,12.6c6.9,0,11.4-4.1,11.8-10.2
	l2.4-32.7C229.5,228.3,226.4,222.1,217.8,222.1z"/>
<linearGradient id="SVGID_00000138571789183066172900000003158159082640427155_" gradientUnits="userSpaceOnUse" x1="174.8766" y1="224.5894" x2="181.1696" y2="258.9109" gradientTransform="matrix(1 0 0 -1 0 502)">
	<stop  offset="0.15" style="stop-color:#000000"/>
	<stop  offset="0.62" style="stop-color:#000000;stop-opacity:0.6"/>
	<stop  offset="1" style="stop-color:#000000;stop-opacity:0"/>
</linearGradient>
<path style="fill:url(#SVGID_00000138571789183066172900000003158159082640427155_);" d="M191.6,234.8l-1.4,17.6l0.5,16.1
	c-3.1,4.4-7.3,9.2-14,9.2c-6.7,0-10.8-4.6-10.3-12.6l2.4-32.4c0.4-5.9,4.7-10.5,11.6-10.5C187.9,222.1,192.1,228.1,191.6,234.8z"/>
<path d="M191.7,233.8c0-6.1-4-11.7-11.3-11.7s-11.5,5.5-11.5,11.4c0,6.3,4.7,11.3,11.4,11.3S191.7,240.2,191.7,233.8z"/>
</svg>
