<?xml version="1.0" encoding="utf-8"?>
<!-- Generator: Adobe Illustrator 27.8.1, SVG Export Plug-In . SVG Version: 6.00 Build 0)  -->
<svg version="1.1" id="Слой_1" xmlns="http://www.w3.org/2000/svg" xmlns:xlink="http://www.w3.org/1999/xlink" x="0px" y="0px"
	 viewBox="0 0 500 500" style="enable-background:new 0 0 500 500;" xml:space="preserve">
<path d="M112.7,179.3c47.1,0,94.3,0,141.5,0c0,4.8,0,9.5,0,14.3c-0.7,0-1.6,0-2.4,0c0-3.9,0-7.9,0-11.8c-45.5,0-91.1,0-136.6,0
	c0,45.5,0,91,0,136.5c45.5,0,91.1,0,136.6,0c0-4.5,0-8.8,0-13.3c0.7,0,1.6,0,2.4,0c0,5.2,0,10.4,0,15.7c-47.1,0-94.3,0-141.5,0
	C112.7,273.6,112.7,226.4,112.7,179.3z"/>
<path d="M245.5,201.8c2.2,0,4.3,0,6.6,0c2.5,4.2,5.2,8.1,7.9,12.2c2.5-4,5.2-8.2,7.9-12.2c2.2,0,4.3,0,6.6,0c-0.1,8.7,0,17.3,0,25.8
	c-2.2,0.1-4.6,0.1-6.9,0c0-4.6,0-9.1,0-13.7c-1.8,2.8-3.7,5.7-5.5,8.5c-1.3,0-2.7,0-4,0c-1.9-2.8-3.7-5.7-5.5-8.7
	c0,4.6,0,9.2,0,13.9c-2.2-0.1-4.6-0.1-6.9,0C245.5,219,245.6,210.3,245.5,201.8z"/>
<path d="M285.3,209.6c3-0.6,6.4-0.1,8.9,1.6c5.1,3.7,4.6,12.7-0.9,15.7c-3.6,1.8-7.9,1.8-11.3-0.1c-4.9-2.8-5.7-10.3-2.1-14.3
	C281.2,210.8,283.2,210,285.3,209.6z M286.3,215.1c-3.3,1.3-2.8,7.2,0.9,7.6c2.7,0.4,4.6-2.7,3.9-5.1
	C290.6,215.5,288.4,214.4,286.3,215.1z"/>
<path d="M302.4,210.5c3.7-1.9,8.2-1,11.9,0.1c0,1.8,0,3.4,0,5.2c-2.1-1.2-4.6-2.2-7.2-1.9c-0.7,0.1-1,0.4-1,1.2
	c2.2,1.9,6,1.3,8.1,3.7c2.7,2.4,1.6,7.2-1.6,8.4c-4,1.5-8.8,1-12.7-0.6c0.1-1.6,0-3.4,0-5.1c2.8,1.5,6.7,3,9.7,1
	c-2.1-2.2-5.8-1.6-8.1-3.9C298.8,216.7,299.4,212,302.4,210.5z"/>
<path d="M321.8,210.9c3.4-2.1,7.9-1.9,11.5-0.4c0,1.8,0,3.6,0,5.4c-2.4-1-5.2-1.9-7.6-0.3c-2.2,1.3-2.2,5.1,0,6.4
	c2.4,1.6,5.5,0.7,7.9-0.3c0,1.8,0,3.6,0,5.5c-4,1.3-8.7,1.8-12.4-0.6C316.1,223,316.6,214.2,321.8,210.9z"/>
<path d="M343.3,209.6c3.9-0.7,8.5,0,10.9,3.4c3.3,4.3,1.9,11.3-2.8,13.9c-4.6,2.2-11.2,1.6-14.2-3c-1.6-2.8-1.6-6.4-0.6-9.4
	C337.9,212,340.5,210,343.3,209.6z M344.3,215.2c-3,1.3-2.7,7.2,0.9,7.5c2.5,0.6,4.6-2.1,4.2-4.5
	C349.3,215.7,346.6,214.2,344.3,215.2z"/>
<path d="M357.2,210c2.2,0,4.6,0,6.9,0c0.9,3.4,1.5,7,2.5,10.4c0.9-3.6,1.6-7.2,2.7-10.6c2.1,0,4,0,6.1,0c1,3.6,1.5,7.2,2.7,10.7
	c0.9-3.6,1.6-7.2,2.4-10.7c2.2,0,4.5,0,6.9,0c-1.6,6-3.7,11.6-5.4,17.6c-2.2,0-4.6,0-6.9,0c-1-3.4-1.6-6.9-2.8-10.1
	c-0.7,3.4-1.9,6.7-2.7,10.1c-2.2,0-4.6,0-6.9,0C360.7,221.8,359.3,215.8,357.2,210z"/>
<path d="M269,235.1c2.4-1.2,5.5,0.9,5.1,3.6c0,2.5-3.1,3.7-5.2,2.8C266,240.8,266.2,236,269,235.1z"/>
<path d="M277.4,235.1c2.1,0,4.3,0,6.4,0c-0.1,8.9,0,18,0,27c-2.1,0-4.2,0-6.4,0C277.5,253.1,277.5,244,277.4,235.1z"/>
<path d="M245.5,236.3c6.3-0.1,12.5,0,18.8,0c0,2.1,0,4,0,6.1c-4,0-7.9,0-11.9,0c0,1.5,0,3,0,4.5c3.6,0,7.2,0,10.7,0c0,2.1,0,4,0,6.1
	c-3.6,0-7.2,0-10.7,0c0,3,0,6.1,0,9.1c-2.4,0-4.6,0-7,0C245.5,253.6,245.6,244.9,245.5,236.3z"/>
<path d="M293,246.1c2.8-2.8,8.2-3.3,10.9,0c2.2-1.9,5.4-2.8,8.2-1.9c2.7,0.7,4.2,3.6,4.2,6.3c0,3.9,0,7.8,0,11.6c-2.2,0-4.3,0-6.4,0
	c0-3.9,0.1-7.8-0.1-11.6c-0.4-2.1-3.7-1.5-4.5,0c-0.1,3.9,0,7.8,0,11.6c-2.1,0-4.2,0-6.4,0c0-3.7,0-7.3,0-11c0-1-1-1.9-2.2-1.9
	c-1,0.1-1.9,0.9-2.8,1.5c0,3.9,0,7.6,0,11.5c-2.1,0-4.2,0-6.4,0c0-6,0-11.8,0-17.7c1.8,0,3.7,0,5.5,0
	C293.2,244.9,293,245.7,293,246.1z"/>
<path d="M267.2,244.5c2.1,0,4.2,0,6.4,0c0,5.8,0,11.8,0,17.6c-2.1,0-4.2,0-6.4,0C267.4,256.3,267.4,250.3,267.2,244.5z"/>
<path d="M352.1,269.5c2.1,0,4.2,0,6.4,0c0,8.9,0,18,0,27c-2.1,0-4.3,0-6.4,0C352.1,287.6,352.1,278.6,352.1,269.5z"/>
<path d="M251.3,270.4c3.9-0.7,8.1-0.1,11.6,1.8c0.3,2.1,0,4.3,0.1,6.4c-2.8-1.9-6.4-3-9.8-2.4c-0.9,0.1-2.1,1-1.6,1.9
	c0.9,1.3,2.7,1.5,4,2.1c2.8,1.2,6.3,1.9,8.1,4.8c2.8,3.7,1,10.1-3.6,11.3c-5.1,1.3-10.9,1-15.7-1.6c0-2.2,0-4.3,0-6.6
	c3.3,2.1,7.5,3.3,11.3,2.8c1,0,1.8-0.7,2.2-1.6c-1-1.9-3.3-2.5-5.2-3.1c-2.4-0.7-4.8-1.8-6.6-3.4c-2.1-2.2-2.5-5.8-1.2-8.5
	C246.3,272.1,248.9,271,251.3,270.4z"/>
<path d="M286,270.7c2.1,0,4.2,0,6.4,0c0,3.1,0,6.3-0.1,9.2c2.2-1.5,5.2-2.2,7.9-1.2c2.5,0.6,3.9,3.3,4.2,5.8c0.1,4,0,8.1,0.1,11.9
	c-2.1,0-4.3,0-6.4,0c0-3.6,0.1-7.2,0-10.7c-0.3-2.8-4.5-2.8-5.5-0.6c-0.1,3.7,0,7.5,0,11.3c-2.1,0-4.3,0-6.4,0
	C286.2,288,286.2,279.4,286,270.7z"/>
<path d="M271,280c3.6-2.2,8.1-2.1,11.9-0.6c0,1.8,0,3.6,0,5.5c-2.4-1-5.2-1.9-7.6-0.4c-2.2,1.2-2.5,4.9-0.4,6.4c2.4,1.9,5.5,1,8.1,0
	c0,1.8,0,3.7,0,5.5c-4,1-8.9,1.6-12.5-0.9C265.4,291.6,266,283.3,271,280z"/>
<path d="M314.8,278.6c2.7-0.6,5.7-0.1,8.1,1c5.8,3.3,5.8,13.1-0.1,16.3c-3.6,1.6-8.1,1.6-11.5-0.3c-4.6-3-5.5-10.1-1.8-14.2
	C310.6,279.7,312.7,278.9,314.8,278.6z M315.8,284.2c-3.4,1.2-2.8,7.3,1,7.6c3,0.6,4.6-3.3,3.6-5.7
	C319.7,284.2,317.5,283.4,315.8,284.2z"/>
<path d="M336,278.8c3-0.9,6.3-0.4,9.1,1c4.6,2.8,5.7,9.8,2.2,14c-2.5,3.3-7.2,3.9-11,3.1c-2.7-0.4-4.8-2.2-6.1-4.5
	c-1.2-2.7-1.2-6-0.1-8.8C331.1,281.2,333.3,279.2,336,278.8z M337.6,284.2c-3,1.3-2.5,7,0.9,7.5c2.5,0.6,4.6-1.9,4.2-4.3
	C342.7,284.8,339.9,283.1,337.6,284.2z"/>
</svg>
