<svg width="185" height="96" viewBox="0 0 185 96" fill="none" xmlns="http://www.w3.org/2000/svg">
  <path d="M0.503418 0.240746C32.1251 0.210826 63.7431 0.229527 95.3648 0.229527C95.3349 3.41975 95.3349 6.60623 95.3648 9.79271C94.8225 9.79271 94.2802 9.7927 93.7416 9.79644C93.7753 7.15974 93.7454 4.52679 93.7678 1.89383C63.2419 1.89757 32.716 1.89757 2.18642 1.89383C2.20512 32.4085 2.21259 62.9231 2.18267 93.4341C32.7123 93.4378 63.2419 93.4378 93.7715 93.4378C93.7341 90.472 93.794 87.5099 93.7341 84.5478C94.2764 84.5403 94.8225 84.5366 95.3685 84.5403C95.3311 88.0372 95.3349 91.5341 95.3685 95.031C63.7468 95.046 32.1251 95.0572 0.503418 95.0273C0.552038 63.4318 0.544558 31.8325 0.503418 0.240746Z" fill="black" />
  <path d="M89.519 15.3167C90.9926 15.2905 92.4624 15.2905 93.936 15.3055C95.6377 18.0581 97.4665 20.7285 99.1944 23.4624C100.93 20.7247 102.699 18.0058 104.483 15.2943C105.941 15.298 107.404 15.2905 108.866 15.3167C108.795 21.0912 108.84 26.8733 108.844 32.6516C107.295 32.7152 105.747 32.7114 104.199 32.6516C104.225 29.5885 104.184 26.5292 104.232 23.4699C103.024 25.3923 101.726 27.2585 100.533 29.1921C99.647 29.1884 98.7606 29.1884 97.8779 29.1958C96.6026 27.2922 95.3572 25.3661 94.1566 23.4175C94.1828 26.5105 94.1903 29.6072 94.1716 32.7002C92.6382 32.6366 91.1011 32.6366 89.5677 32.6927C89.5265 26.8995 89.62 21.1062 89.519 15.3167Z" fill="black" />
  <path d="M116.208 20.5751C118.238 20.1899 120.49 20.4929 122.214 21.6897C125.588 24.1768 125.318 30.1832 121.578 32.2065C119.226 33.3659 116.294 33.3659 113.975 32.128C110.71 30.2318 110.19 25.2688 112.61 22.4938C113.5 21.4054 114.858 20.8444 116.208 20.5751ZM116.963 24.2703C114.719 25.1305 115.059 29.1173 117.55 29.3567C119.379 29.6633 120.647 27.5914 120.123 25.9757C119.865 24.5657 118.283 23.7205 116.963 24.2703Z" fill="black" />
  <path d="M127.727 21.1623C130.248 19.9056 133.195 20.4218 135.749 21.3044C135.764 22.4713 135.768 23.6344 135.787 24.8013C134.354 23.9598 132.697 23.3203 131.014 23.5297C130.536 23.597 130.311 23.8663 130.345 24.3375C131.882 25.6839 134.309 25.2613 135.731 26.8209C137.503 28.3992 136.826 31.6305 134.638 32.4683C131.89 33.437 128.77 33.2163 126.119 32.0457C126.171 30.8975 126.164 29.7531 126.111 28.6086C128.037 29.5661 130.629 30.6581 132.608 29.3117C131.164 27.7746 128.718 28.2234 127.222 26.7498C125.36 25.3922 125.704 22.1908 127.727 21.1623Z" fill="black" />
  <path d="M140.761 21.4391C143.11 20.0889 146.038 20.1338 148.51 21.1474C148.491 22.3554 148.495 23.5671 148.54 24.7752C146.969 24.0646 144.991 23.4961 143.431 24.5358C141.939 25.4708 141.917 27.9168 143.401 28.8742C144.983 29.9738 147.066 29.4053 148.686 28.6797C148.645 29.8952 148.641 31.1107 148.678 32.33C146.008 33.2425 142.844 33.4968 140.368 31.926C136.901 29.5287 137.227 23.6158 140.761 21.4391Z" fill="black" />
  <path d="M155.138 20.5938C157.699 20.0964 160.845 20.6424 162.412 22.9313C164.6 25.7924 163.758 30.5123 160.531 32.2476C157.419 33.7174 153.017 33.3173 151.02 30.228C149.924 28.3393 149.954 25.927 150.664 23.9037C151.502 22.1496 153.215 20.8893 155.138 20.5938ZM155.859 24.3151C153.825 25.2164 154.098 29.0948 156.476 29.3304C158.174 29.6857 159.573 27.9354 159.233 26.3235C159.173 24.6966 157.31 23.6419 155.859 24.3151Z" fill="black" />
  <path d="M164.394 20.8182C165.927 20.8108 167.465 20.8033 169.002 20.8332C169.589 23.1782 170.019 25.5681 170.707 27.8831C171.291 25.512 171.837 23.1296 172.525 20.7883C173.879 20.822 175.233 20.8182 176.59 20.8182C177.271 23.1857 177.619 25.6391 178.389 27.9841C178.98 25.6054 179.511 23.2156 179.99 20.8145C181.508 20.8145 183.027 20.8145 184.549 20.8145C183.453 24.7789 182.058 28.6535 180.959 32.6217C179.429 32.6628 177.899 32.6666 176.37 32.6516C175.67 30.3964 175.229 28.0701 174.481 25.8336C173.95 28.115 173.142 30.3253 172.731 32.6329C171.201 32.6778 169.675 32.6591 168.149 32.6554C166.821 28.7321 165.778 24.7228 164.394 20.8182Z" fill="black" />
  <path d="M105.313 37.6969C106.948 36.9227 109.05 38.2915 108.736 40.1466C108.721 41.8707 106.682 42.6187 105.272 42.0166C103.32 41.4817 103.421 38.2579 105.313 37.6969Z" fill="black" />
  <path d="M110.964 37.6594C112.389 37.6332 113.818 37.6332 115.247 37.6669C115.183 43.7033 115.209 49.7433 115.235 55.7834C113.814 55.7984 112.393 55.7984 110.972 55.7909C110.987 49.7471 111.005 43.7032 110.964 37.6594Z" fill="black" />
  <path d="M89.4932 38.4935C93.7044 38.3701 97.9194 38.4561 102.134 38.4523C102.089 39.8025 102.089 41.1601 102.131 42.514C99.4677 42.5551 96.8086 42.4878 94.1495 42.5514C94.1719 43.5462 94.1794 44.5373 94.1719 45.5322C96.5767 45.5434 98.9816 45.5172 101.386 45.5471C101.341 46.9085 101.341 48.2698 101.383 49.6349C98.9741 49.6649 96.5655 49.6237 94.1569 49.6574C94.1981 51.6994 94.1719 53.7452 94.1906 55.791C92.6385 55.7985 91.0864 55.8022 89.5343 55.7798C89.5493 50.0164 89.6353 44.2531 89.4932 38.4935Z" fill="black" />
  <path d="M121.463 45.0908C123.344 43.1872 126.96 42.873 128.726 45.0834C130.196 43.7893 132.286 43.1498 134.194 43.7856C135.974 44.3129 136.987 46.2315 136.961 48.0043C136.991 50.5961 136.928 53.1879 136.991 55.776C135.54 55.8022 134.089 55.8022 132.642 55.7872C132.615 53.1954 132.754 50.5961 132.585 48.0118C132.275 46.6504 130.132 46.9833 129.635 48.0417C129.578 50.6223 129.646 53.2104 129.623 55.7985C128.206 55.7947 126.788 55.7947 125.371 55.7947C125.345 53.3226 125.401 50.8504 125.36 48.382C125.364 47.6378 124.63 47.0431 123.909 47.0992C123.168 47.1703 122.6 47.6939 122.001 48.0791C122.02 50.6447 121.975 53.2104 122.031 55.776C120.606 55.7985 119.181 55.7985 117.756 55.7947C117.768 51.8378 117.76 47.8846 117.76 43.9277C119.009 43.9352 120.255 43.9352 121.504 43.9239C121.493 44.2157 121.474 44.7991 121.463 45.0908Z" fill="black" />
  <path d="M104.173 43.9427C105.59 43.9315 107.004 43.9314 108.425 43.9389C108.414 47.8884 108.402 51.8378 108.429 55.7872C107.007 55.7985 105.586 55.8022 104.165 55.7835C104.202 51.8378 104.191 47.8884 104.173 43.9427Z" fill="black" />
  <path d="M161.013 60.8025C162.434 60.7801 163.855 60.7801 165.277 60.7988C165.262 66.8314 165.239 72.864 165.288 78.9004C163.855 78.9228 162.427 78.9228 160.998 78.8929C161.073 72.864 161.039 66.8314 161.013 60.8025Z" fill="black" />
  <path d="M93.431 61.3561C96.0527 60.8923 98.8689 61.2588 101.221 62.5304C101.397 63.9516 101.225 65.3878 101.319 66.8165C99.4412 65.4925 97.0438 64.8343 94.7624 65.2344C94.1715 65.3317 93.3749 65.8852 93.7003 66.5734C94.2762 67.4822 95.4768 67.6206 96.4005 68.0208C98.3379 68.7725 100.612 69.3559 101.835 71.1885C103.72 73.6719 102.568 77.9467 99.4636 78.8069C96.0265 79.6933 92.1444 79.4652 89.0066 77.7186C89.0402 76.2637 89.044 74.8126 89.0066 73.3615C91.2356 74.8014 93.9695 75.598 96.6287 75.2539C97.3281 75.2352 97.7806 74.7116 98.1583 74.1918C97.4178 72.9127 95.9443 72.4639 94.6203 72.0599C93.0158 71.5999 91.445 70.8818 90.2258 69.7187C88.8233 68.2451 88.4867 65.8665 89.4367 64.0676C90.136 62.4968 91.8564 61.7338 93.431 61.3561Z" fill="black" />
  <path d="M116.772 61.5692C118.197 61.5505 119.619 61.5505 121.047 61.558C121.025 63.6337 121.088 65.7132 120.98 67.7889C122.521 66.7417 124.511 66.2592 126.291 66.9997C127.981 67.4411 128.879 69.2362 129.043 70.8519C129.133 73.5298 129.006 76.2151 129.111 78.8929C127.678 78.9228 126.25 78.9228 124.821 78.8967C124.828 76.5068 124.911 74.1132 124.806 71.7308C124.608 69.8496 121.799 69.8122 121.073 71.3456C120.98 73.8589 121.062 76.3834 121.059 78.9004C119.634 78.9191 118.209 78.9191 116.787 78.9041C116.787 73.1258 116.814 67.3475 116.772 61.5692Z" fill="black" />
  <path d="M106.645 67.7589C109.046 66.2929 112.049 66.3976 114.611 67.3737C114.607 68.593 114.611 69.8159 114.637 71.0352C113.077 70.3433 111.166 69.7598 109.581 70.6948C108.058 71.5326 107.864 73.9449 109.274 74.9846C110.83 76.2562 113.006 75.6765 114.678 74.9584C114.659 76.1926 114.659 77.4343 114.652 78.6723C111.903 79.4203 108.675 79.783 106.218 78.0477C102.964 75.5681 103.312 70.0104 106.645 67.7589Z" fill="black" />
  <path d="M135.985 66.8165C137.806 66.42 139.747 66.7454 141.411 67.557C145.327 69.7561 145.282 76.3498 141.31 78.4741C138.921 79.6185 135.929 79.6073 133.602 78.3058C130.472 76.3311 129.907 71.4915 132.361 68.7688C133.213 67.6094 134.627 67.097 135.985 66.8165ZM136.707 70.5303C134.421 71.3643 134.814 75.4709 137.365 75.5868C139.396 75.9384 140.473 73.4251 139.721 71.8094C139.358 70.5677 137.84 70.0366 136.707 70.5303Z" fill="black" />
  <path d="M150.238 66.9324C152.247 66.3677 154.453 66.6669 156.293 67.6281C159.398 69.5243 160.059 74.2479 157.748 77.0117C156.084 79.237 152.939 79.6223 150.388 79.0837C148.634 78.8144 147.168 77.5765 146.289 76.0842C145.492 74.2367 145.481 72.0787 146.154 70.1937C146.925 68.5668 148.447 67.2728 150.238 66.9324ZM151.334 70.5677C149.356 71.484 149.602 75.2913 151.94 75.5644C153.597 75.9271 155.037 74.2815 154.745 72.6845C154.749 71.0053 152.834 69.816 151.334 70.5677Z" fill="black" />
</svg>