<svg width="232" height="102" viewBox="0 0 232 102" fill="none" xmlns="http://www.w3.org/2000/svg">
  <path d="M192.801 1.89342C205.695 -0.279518 219.011 1.34364 231.406 5.29682C231.388 5.86156 231.253 6.41508 231.097 6.95364C230.03 10.2785 228.989 13.6146 228.012 16.9656C227.87 17.4182 227.691 17.867 227.43 18.2671C222.786 14.5832 217.639 11.3182 211.816 9.92695C206.527 8.56559 200.809 9.02186 195.822 11.2546C190.331 13.6782 185.71 17.7361 181.909 22.3363C177.094 28.223 173.386 34.9588 170.536 42.0012C168.369 47.5925 166.709 53.3745 165.359 59.2164C164.206 64.4188 163.319 69.7258 163.46 75.074C163.401 80.2502 164.367 85.8676 167.933 89.8358C171.797 94.1854 178.291 95.0494 183.699 93.7591C184.341 92.7605 184.546 91.5599 184.927 90.4529C188.231 79.8089 191.559 69.1723 194.886 58.5395C195.471 56.6134 195.348 54.3656 194.125 52.7051C193.218 51.3811 191.745 50.6593 190.473 49.7579C203.163 49.8028 215.856 49.7542 228.549 49.7804C226.803 50.8463 224.823 51.5718 223.42 53.1314C221.443 54.9304 220.526 57.5222 219.839 60.0355C216.553 70.4514 213.252 80.8635 209.981 91.2832C209.522 92.5623 209.433 94.335 207.903 94.8137C196.911 99.945 184.658 102.784 172.506 101.748C166.202 101.116 159.954 99.3915 154.393 96.3097C149.078 93.3364 145.247 88.1902 143.076 82.5615C140.976 77.0974 140.047 71.1956 140.23 65.35C140.103 60.6152 140.831 55.914 141.789 51.2914C143.46 43.8749 146.179 36.6642 150.148 30.1678C153.475 24.599 157.962 19.8118 162.871 15.6155C171.353 8.41224 181.842 3.68114 192.801 1.89342Z" fill="black" />
  <path d="M30.3814 2.10293C42.4629 1.94585 54.5518 2.08048 66.637 2.0356C72.1649 2.10292 77.7972 1.67656 83.202 3.10898C89.0618 4.49278 94.9552 7.52218 98.1182 12.8592C100.979 17.5416 101.21 23.3499 100.11 28.6083C98.812 34.7457 96.3427 40.6885 92.5904 45.7375C89.2707 50.2666 84.8618 53.9206 79.9979 56.6733C74.1828 59.9009 67.7411 61.8681 61.195 62.9116C54.5518 64.0972 47.7744 63.869 41.0679 63.6184C38.1025 72.9049 35.2453 82.2324 32.3061 91.5301C31.7466 93.2766 31.0491 95.1766 31.7503 96.9942C32.1718 98.5538 33.5594 99.4851 34.6448 100.558C26.1665 100.716 17.677 100.581 9.19503 100.626C6.17 100.57 3.13751 100.734 0.116211 100.543C2.68618 98.5949 5.40162 96.4519 6.44229 93.2505C14.6669 66.8535 22.9102 40.4566 31.1498 14.0597C31.866 11.4006 33.2684 8.73768 32.7351 5.91398C32.5374 4.34318 31.2431 3.31469 30.3814 2.10293ZM57.8641 9.80359C53.5037 23.7501 49.1284 37.7002 44.7718 51.6504C44.3428 53.0417 43.7423 54.4031 43.5931 55.8692C50.6502 57.3577 58.3042 54.822 63.336 49.6982C67.6404 45.4869 70.3036 39.9143 72.1686 34.2557C73.7986 29.1095 75.1899 23.6752 74.4103 18.2448C73.9516 15.2303 72.1612 12.3356 69.3525 11.0228C65.7829 9.26128 61.7022 9.76245 57.8641 9.80359Z" fill="black" />
  <path d="M110.002 28.4287C113.415 26.1773 117.369 24.6289 121.479 24.4606C125.746 24.2325 130.278 25.2984 133.546 28.1819C135.84 30.1604 137.451 33.0738 137.429 36.1556C137.664 40.3032 135.444 44.1293 132.677 47.0427C128.481 51.3662 123.061 54.2086 117.641 56.6844C116.302 57.3352 114.881 57.8438 113.654 58.7078C114.269 64.344 116.578 69.6735 119.402 74.5392C120.424 76.1811 121.334 77.9127 122.606 79.3863C124.721 76.8692 125.821 73.4845 125.851 70.2158C125.929 68.5141 124.702 67.25 123.706 66.0382C127.757 65.9896 131.823 65.8699 135.866 66.0943C135.59 71.4836 133.751 76.8131 130.499 81.1328C129.435 82.6962 127.999 83.964 126.936 85.5273C129.126 88.1304 131.957 90.1013 134.68 92.106C138.193 94.5557 141.89 96.7548 145.762 98.5949C147.123 99.2868 148.66 99.6271 149.921 100.521C142.931 100.775 135.926 100.532 128.928 100.641C127.798 100.603 126.548 100.798 125.553 100.14C122.527 98.2433 120.073 95.5991 117.305 93.3776C116.254 93.6843 115.426 94.4547 114.497 95.0082C109.26 98.262 103.49 100.813 97.3649 101.751C91.6953 102.316 85.6564 101.789 80.6844 98.7707C76.5179 96.2424 73.3997 91.9639 72.4933 87.143C71.4228 81.447 72.3888 75.2049 75.8428 70.4663C79.7668 64.9424 85.8579 61.4604 92.0534 59.0556C94.463 58.0421 97.0292 57.41 99.394 56.2917C99.2598 50.3713 99.8192 44.3275 102.046 38.7885C103.684 34.7007 106.306 30.8934 110.002 28.4287ZM115.821 34.6184C112.669 39.559 111.901 45.6514 112.341 51.3998L112.539 51.6467C113.71 51.2988 114.65 50.4686 115.62 49.7542C119.088 47.0165 122.263 43.7889 124.467 39.9255C125.709 37.6665 126.75 35.071 126.336 32.4492C125.981 30.6204 123.986 29.5769 122.237 29.8574C119.439 30.1865 117.358 32.4231 115.821 34.6184ZM96.4734 66.4683C92.3406 69.2546 88.3756 72.9909 87.0888 77.9838C86.242 81.9033 86.9918 86.5409 90.1175 89.2898C93.1575 91.9153 97.4544 92.4575 101.3 91.8479C105.082 91.1485 108.775 89.7797 112.057 87.7751C106.999 80.6728 103.232 72.6729 100.819 64.2916C99.2001 64.5833 97.861 65.653 96.4734 66.4683Z" fill="black" />
</svg>