<?xml version="1.0" encoding="utf-8"?>
<!-- Generator: Adobe Illustrator 27.8.1, SVG Export Plug-In . SVG Version: 6.00 Build 0)  -->
<svg version="1.1" id="Слой_1" xmlns="http://www.w3.org/2000/svg" xmlns:xlink="http://www.w3.org/1999/xlink" x="0px" y="0px"
	 viewBox="0 0 500 500" style="enable-background:new 0 0 500 500;" xml:space="preserve">
<path d="M326.8,200.4c12.9-2.2,26.2-0.5,38.6,3.4c0,0.6-0.2,1.1-0.3,1.7c-1.1,3.3-2.1,6.7-3.1,10c-0.1,0.5-0.3,0.9-0.6,1.3
	c-4.6-3.7-9.8-6.9-15.6-8.3c-5.3-1.4-11-0.9-16,1.3c-5.5,2.4-10.1,6.5-13.9,11.1c-4.8,5.9-8.5,12.6-11.4,19.7
	c-2.2,5.6-3.8,11.4-5.2,17.2c-1.2,5.2-2,10.5-1.9,15.9c-0.1,5.2,0.9,10.8,4.5,14.8c3.9,4.3,10.4,5.2,15.8,3.9c0.6-1,0.8-2.2,1.2-3.3
	c3.3-10.6,6.6-21.3,10-31.9c0.6-1.9,0.5-4.2-0.8-5.8c-0.9-1.3-2.4-2-3.7-2.9c12.7,0,25.4,0,38.1,0c-1.7,1.1-3.7,1.8-5.1,3.4
	c-2,1.8-2.9,4.4-3.6,6.9c-3.3,10.4-6.6,20.8-9.9,31.2c-0.5,1.3-0.5,3.1-2.1,3.5c-11,5.1-23.2,8-35.4,6.9c-6.3-0.6-12.6-2.4-18.1-5.4
	c-5.3-3-9.1-8.1-11.3-13.7c-2.1-5.5-3-11.4-2.8-17.2c-0.1-4.7,0.6-9.4,1.6-14.1c1.7-7.4,4.4-14.6,8.4-21.1
	c3.3-5.6,7.8-10.4,12.7-14.6C305.4,206.9,315.9,202.2,326.8,200.4z"/>
<path d="M164.4,200.6c12.1-0.2,24.2,0,36.3-0.1c5.5,0.1,11.2-0.4,16.6,1.1c5.9,1.4,11.8,4.4,14.9,9.8c2.9,4.7,3.1,10.5,2,15.7
	c-1.3,6.1-3.8,12.1-7.5,17.1c-3.3,4.5-7.7,8.2-12.6,10.9c-5.8,3.2-12.3,5.2-18.8,6.2c-6.6,1.2-13.4,1-20.1,0.7
	c-3,9.3-5.8,18.6-8.8,27.9c-0.6,1.7-1.3,3.6-0.6,5.5c0.4,1.6,1.8,2.5,2.9,3.6c-8.5,0.2-17,0-25.4,0.1c-3-0.1-6.1,0.1-9.1-0.1
	c2.6-1.9,5.3-4.1,6.3-7.3c8.2-26.4,16.5-52.8,24.7-79.2c0.7-2.7,2.1-5.3,1.6-8.1C166.6,202.9,165.3,201.8,164.4,200.6z M191.9,208.3
	c-4.4,13.9-8.7,27.9-13.1,41.8c-0.4,1.4-1,2.8-1.2,4.2c7.1,1.5,14.7-1,19.7-6.2c4.3-4.2,7-9.8,8.8-15.4c1.6-5.1,3-10.6,2.2-16
	c-0.5-3-2.2-5.9-5.1-7.2C199.8,207.8,195.7,208.3,191.9,208.3z"/>
<path d="M244,226.9c3.4-2.3,7.4-3.8,11.5-4c4.3-0.2,8.8,0.8,12.1,3.7c2.3,2,3.9,4.9,3.9,8c0.2,4.1-2,8-4.8,10.9
	c-4.2,4.3-9.6,7.2-15,9.6c-1.3,0.7-2.8,1.2-4,2c0.6,5.6,2.9,11,5.7,15.8c1,1.6,1.9,3.4,3.2,4.8c2.1-2.5,3.2-5.9,3.2-9.2
	c0.1-1.7-1.1-3-2.1-4.2c4.1,0,8.1-0.2,12.2,0.1c-0.3,5.4-2.1,10.7-5.4,15c-1.1,1.6-2.5,2.8-3.6,4.4c2.2,2.6,5,4.6,7.7,6.6
	c3.5,2.4,7.2,4.6,11.1,6.5c1.4,0.7,2.9,1,4.2,1.9c-7,0.3-14,0-21,0.1c-1.1,0-2.4,0.2-3.4-0.5c-3-1.9-5.5-4.5-8.2-6.8
	c-1.1,0.3-1.9,1.1-2.8,1.6c-5.2,3.3-11,5.8-17.1,6.7c-5.7,0.6-11.7,0-16.7-3c-4.2-2.5-7.3-6.8-8.2-11.6c-1.1-5.7-0.1-11.9,3.3-16.7
	c3.9-5.5,10-9,16.2-11.4c2.4-1,5-1.6,7.3-2.8c-0.1-5.9,0.4-12,2.7-17.5C237.7,233.2,240.3,229.4,244,226.9z M249.9,233.1
	c-3.2,4.9-3.9,11-3.5,16.8l0.2,0.2c1.2-0.3,2.1-1.2,3.1-1.9c3.5-2.7,6.6-6,8.8-9.8c1.2-2.3,2.3-4.9,1.9-7.5
	c-0.4-1.8-2.3-2.9-4.1-2.6C253.5,228.7,251.4,230.9,249.9,233.1z M230.5,265c-4.1,2.8-8.1,6.5-9.4,11.5c-0.8,3.9-0.1,8.6,3,11.3
	c3,2.6,7.3,3.2,11.2,2.6c3.8-0.7,7.5-2.1,10.8-4.1c-5.1-7.1-8.8-15.1-11.2-23.5C233.2,263.1,231.9,264.2,230.5,265z"/>
</svg>
