<svg width="206" height="48" viewBox="0 0 206 48" fill="none" xmlns="http://www.w3.org/2000/svg">
  <path d="M19.0252 0.82035C24.4669 0.74948 29.9198 0.689805 35.3503 1.07027C38.6153 1.3724 42.1646 2.08483 44.4385 4.65107C46.6488 7.08676 47.0079 10.5557 47.3033 13.6889C47.6661 20.787 47.711 27.9113 47.2435 35.0058C46.9667 38.0793 46.3908 41.4214 44.0757 43.6669C41.6036 46.151 37.9496 46.7292 34.5948 46.9194C28.1209 47.2216 21.6282 47.2066 15.1506 46.9567C11.5415 46.7628 7.46486 46.5912 4.7384 43.8869C2.10544 41.5855 1.47712 37.9264 1.30882 34.6142C1.30134 32.2381 0.882459 29.8808 0.946039 27.5048C1.00214 24.2671 0.860016 21.0258 1.01336 17.7956C1.38736 14.7929 1.15174 11.7231 1.96706 8.7839C2.54676 6.17663 4.36066 3.94237 6.65702 2.62195C10.5317 0.876307 14.8701 0.99566 19.0252 0.82035ZM30.2452 2.06245C31.5766 2.53243 32.9679 2.9017 34.1759 3.67008C36.2105 4.83011 37.3437 7.06437 37.8711 9.2688C38.3797 11.9581 38.4844 14.7034 38.6378 17.4338C38.6191 24.2709 39.0529 31.1564 38.0207 37.9413C37.7439 40.1047 36.693 42.1972 35.0474 43.6407C33.6037 44.797 31.7449 45.185 30.1517 46.0727C32.5827 46.2816 35.0025 45.9384 37.4148 45.6587C39.3446 45.3827 41.2782 44.7784 42.8079 43.5288C44.0346 42.6672 44.7153 41.2871 45.4072 40.004C45.4446 39.8324 45.5194 39.493 45.5568 39.3251C46.948 34.2784 46.4319 28.9632 46.5591 23.786C46.4357 18.5043 46.963 13.0622 45.3772 7.94092C44.2552 5.15088 41.6821 3.11057 38.7313 2.55853C35.9524 2.0326 33.0614 1.61112 30.2452 2.06245ZM15.2628 12.3572C13.591 12.7936 12.196 14.0581 11.5228 15.6359C10.7635 17.6538 10.7261 19.8359 10.4606 21.9545C10.1764 24.062 10.5354 26.1769 10.6887 28.2806C10.8645 29.6458 11.044 31.0334 11.519 32.3351C12.5849 34.5843 15.1655 36.2553 17.7087 35.6175C22.2117 34.2934 26.2658 31.7122 29.774 28.6387C31.169 27.4488 32.2012 25.6733 32.0217 23.7897C32.0815 22.0217 31.083 20.3842 29.7478 19.2913C27.5262 17.21 24.9494 15.5464 22.2678 14.1178C20.0874 13.1219 17.7536 11.7418 15.2628 12.3572Z" fill="black" />
  <path d="M61.4404 13.0772C62.6036 13.0958 63.7704 13.0884 64.9336 13.0212C65.8985 14.834 66.2875 16.8706 67.0317 18.7729C68.0939 21.6114 68.9242 24.5283 70.0125 27.3556C70.2519 28.1091 70.5137 28.8551 70.8016 29.5936C70.8353 29.7652 70.9064 30.1084 70.9438 30.2799C71.1757 30.6716 71.415 31.067 71.6506 31.4624C72.9671 29.8696 73.2514 27.7324 73.9956 25.8562C74.6987 24.1441 75.2522 22.3723 75.8506 20.623C76.9053 18.2134 77.4327 15.5726 78.6482 13.245C79.6879 12.7527 81.0642 13.0884 82.2311 13.107C79.4373 20.2239 77.0213 27.4862 74.2387 34.6105C72.5071 34.603 70.7755 34.6067 69.0438 34.6105C66.7437 28.0904 64.3838 21.589 62.1473 15.0504C61.9079 14.3901 61.6723 13.7337 61.4404 13.0772Z" fill="black" />
  <path d="M85.5075 13.066C86.5472 12.9876 87.5869 13.0212 88.6267 12.969C88.9446 15.9343 88.4958 18.9333 88.8623 21.8912C89.7374 22.3761 90.2685 21.3354 90.8033 20.8244C92.6808 18.5043 94.7752 16.3745 96.649 14.0582C97.7485 12.3386 100.075 13.2525 101.762 13.0138C98.9191 16.699 95.4372 19.8658 92.6958 23.6293C96.0431 27.2176 99.3081 30.8954 102.506 34.6179C100.684 34.3867 98.2085 35.3751 97.0005 33.5213C95.4409 31.6078 93.7916 29.7689 92.1273 27.9487C91.2783 27.0386 90.6313 25.8785 89.5504 25.222C89.3784 25.237 89.038 25.2668 88.866 25.2855C88.5743 28.3776 88.7987 31.5034 88.7688 34.6105C87.6019 34.6216 86.435 34.6254 85.2681 34.6366C85.0026 28.0419 85.242 21.4324 85.141 14.834C85.2307 14.2484 84.9615 13.4763 85.5075 13.066Z" fill="black" />
  <path d="M112.024 12.9727C115.985 13.2935 120.114 12.3871 123.944 13.7299C127.018 14.8116 128.409 18.8363 126.666 21.5816C126.236 22.4842 124.983 22.7453 124.684 23.6816C127.321 24.7334 128.888 27.8816 127.796 30.5634C127.018 33.1073 124.306 34.5433 121.771 34.6142C118.521 34.644 115.271 34.603 112.021 34.6254C112.021 27.4078 112.013 20.1903 112.024 12.9727ZM115.465 16.3036C115.334 18.2805 115.42 20.2649 115.461 22.2455C117.429 22.2567 119.407 22.3761 121.371 22.212C123.341 21.977 124.632 19.5375 123.633 17.8143C123.009 16.382 121.344 15.8448 119.886 16.009C118.431 16.1582 116.804 15.6807 115.465 16.3036ZM115.401 25.6808C115.465 27.654 115.3 29.6347 115.491 31.6004C117.44 31.9211 119.441 31.6227 121.412 31.6899C123.169 31.7123 124.306 30.127 124.677 28.5753C124.333 27.2959 123.79 25.7219 122.317 25.4086C120.226 25.0878 118.094 25.3936 115.992 25.2109C115.843 25.3265 115.547 25.5652 115.401 25.6808Z" fill="black" />
  <path d="M16.0406 17.3145C16.7737 17.3816 17.5179 17.4674 18.1874 17.8031C21.4524 19.2205 24.5117 21.1414 27.1372 23.5473C27.1335 23.7524 27.1297 24.159 27.126 24.3642C24.7361 26.5052 22.0396 28.2918 19.1448 29.6831C18.1687 30.1568 17.1178 30.4664 16.0406 30.6007C14.9822 26.259 14.9673 21.6599 16.0406 17.3145Z" fill="black" />
  <path d="M174.815 18.8586C178.162 17.9112 182.329 18.7579 184.363 21.7643C185.691 23.3906 185.919 25.5241 185.781 27.5495C181.476 27.5644 177.171 27.5383 172.866 27.5682C172.874 30.1419 175.32 32.268 177.871 32.0106C179.587 32.1934 180.986 31.0893 182.254 30.1046C183.223 30.306 184.195 30.4552 185.175 30.6156C183.185 35.0617 177.033 36.0502 173.065 33.8085C169.747 31.8465 168.79 27.501 169.673 23.9687C170.619 21.671 172.354 19.5822 174.815 18.8586ZM173.046 24.8826C173.723 25.222 174.512 25.0579 175.245 25.0989C177.575 25.0355 179.909 25.0914 182.239 25.0541C181.958 23.2749 180.545 21.7867 178.783 21.4099C176.36 20.6826 173.506 22.3984 173.046 24.8826Z" fill="black" />
  <path d="M194.08 18.7616C197.274 18.0007 200.995 18.6945 203.187 21.2868C206.19 24.7109 205.629 30.5521 201.997 33.3123C198.313 35.9009 192.479 35.4906 189.652 31.8166C187.755 29.2951 187.52 25.7031 188.889 22.8907C189.82 20.7833 191.907 19.3584 194.08 18.7616ZM194.016 22.0291C191.11 23.6665 190.669 28.0568 192.834 30.4663C194.63 32.4917 198.209 32.626 200.067 30.6155C201.698 29.1646 201.96 26.7214 201.373 24.7221C200.939 24.0097 200.587 23.2264 199.985 22.6408C198.385 21.2383 195.871 21.0705 194.016 22.0291Z" fill="black" />
  <path d="M131.85 18.8251C132.845 18.8437 133.843 18.8624 134.842 18.8698C134.913 22.887 134.73 26.9117 134.928 30.9252C135.519 30.9028 135.912 30.4105 136.151 29.9218C138.002 26.244 139.857 22.57 141.697 18.8847C143.287 18.8363 144.88 18.8512 146.473 18.8437C146.485 24.0993 146.488 29.3549 146.477 34.6104C145.464 34.6067 144.45 34.6067 143.44 34.6067C143.395 30.5522 143.53 26.4977 143.365 22.4469C141.963 23.1631 141.585 24.7819 140.901 26.0687C139.502 28.9259 138.088 31.7794 136.63 34.6067C135.033 34.6104 133.436 34.6067 131.842 34.6067C131.861 29.3474 131.775 24.0844 131.85 18.8251Z" fill="black" />
  <path d="M153.407 18.8363C157.274 18.8661 161.145 18.8288 165.016 18.8773C165.098 23.2041 165.02 27.5347 165.158 31.8615C166.018 31.8204 166.882 31.7981 167.746 31.7831C167.776 34.3419 167.761 36.9044 167.757 39.4632C166.684 39.4632 165.611 39.4595 164.541 39.4595C164.429 37.8444 164.447 36.2293 164.384 34.6142C160.528 34.644 156.668 34.5284 152.816 34.6552C152.741 34.7448 152.584 34.9238 152.506 35.0133C152.356 36.4867 152.468 37.9749 152.431 39.4595C151.402 39.452 150.378 39.452 149.353 39.4483C149.263 36.9529 149.349 34.4575 149.304 31.9622C150.561 31.578 151.788 30.8282 152.072 29.4481C152.962 25.983 152.906 22.3649 153.407 18.8363ZM156.597 21.6935C156.032 22.3947 156.242 23.3682 156.115 24.2C155.774 26.5313 155.965 29.0267 154.72 31.1341C154.701 31.3243 154.66 31.7048 154.641 31.8988C156.99 31.6675 159.354 31.9659 161.702 31.6787C161.785 29.049 161.714 26.4194 161.758 23.7897C161.725 23.1109 161.829 22.3947 161.571 21.7494C159.93 21.507 158.247 21.5704 156.597 21.6935Z" fill="black" />
</svg>