<?xml version="1.0" encoding="utf-8"?>
<!-- Generator: Adobe Illustrator 27.8.1, SVG Export Plug-In . SVG Version: 6.00 Build 0)  -->
<svg version="1.1" id="Слой_1" xmlns="http://www.w3.org/2000/svg" xmlns:xlink="http://www.w3.org/1999/xlink" x="0px" y="0px"
	 viewBox="0 0 500 500" style="enable-background:new 0 0 500 500;" xml:space="preserve">
<path d="M88.3,214.8c10.9-0.1,21.8-0.3,32.6,0.5c6.5,0.6,13.6,2,18.2,7.2c4.4,4.9,5.1,11.8,5.7,18c0.7,14.2,0.8,28.4-0.1,42.6
	c-0.6,6.1-1.7,12.8-6.3,17.3c-4.9,5-12.2,6.1-18.9,6.5c-12.9,0.6-25.9,0.6-38.8,0.1c-7.2-0.4-15.3-0.7-20.8-6.1
	c-5.3-4.6-6.5-11.9-6.8-18.5c0-4.7-0.9-9.5-0.7-14.2c0.1-6.5-0.2-12.9,0.1-19.4c0.7-6,0.3-12.1,1.9-18c1.2-5.2,4.8-9.7,9.4-12.3
	C71.4,214.9,80,215.2,88.3,214.8z M110.7,217.3c2.7,0.9,5.4,1.7,7.9,3.2c4.1,2.3,6.3,6.8,7.4,11.2c1,5.4,1.2,10.9,1.5,16.3
	c0,13.7,0.8,27.4-1.2,41c-0.6,4.3-2.7,8.5-5.9,11.4c-2.9,2.3-6.6,3.1-9.8,4.9c4.9,0.4,9.7-0.3,14.5-0.8c3.9-0.6,7.7-1.8,10.8-4.3
	c2.4-1.7,3.8-4.5,5.2-7c0.1-0.3,0.2-1,0.3-1.4c2.8-10.1,1.7-20.7,2-31c-0.2-10.5,0.8-21.4-2.4-31.6c-2.2-5.6-7.4-9.6-13.3-10.7
	C122.1,217.2,116.4,216.4,110.7,217.3z M80.8,237.9c-3.3,0.9-6.1,3.4-7.5,6.5c-1.5,4-1.6,8.4-2.1,12.6c-0.6,4.2,0.1,8.4,0.5,12.6
	c0.4,2.7,0.7,5.5,1.7,8.1c2.1,4.5,7.3,7.8,12.4,6.6c9-2.6,17.1-7.8,24.1-13.9c2.8-2.4,4.8-5.9,4.5-9.7c0.1-3.5-1.9-6.8-4.5-9
	c-4.4-4.2-9.6-7.5-14.9-10.3C90.5,239.4,85.8,236.6,80.8,237.9z"/>
<path d="M173,239.3c2.3,0,4.7,0,7-0.1c1.9,3.6,2.7,7.7,4.2,11.5c2.1,5.7,3.8,11.5,6,17.1c0.5,1.5,1,3,1.6,4.5c0.1,0.3,0.2,1,0.3,1.4
	c0.5,0.8,0.9,1.6,1.4,2.4c2.6-3.2,3.2-7.4,4.7-11.2c1.4-3.4,2.5-7,3.7-10.5c2.1-4.8,3.2-10.1,5.6-14.7c2.1-1,4.8-0.3,7.2-0.3
	c-5.6,14.2-10.4,28.7-16,42.9c-3.5,0-6.9,0-10.4,0c-4.6-13-9.3-26-13.8-39.1C174,241.9,173.5,240.6,173,239.3z"/>
<path d="M221.1,239.3c2.1-0.2,4.2-0.1,6.2-0.2c0.6,5.9-0.3,11.9,0.5,17.8c1.7,1,2.8-1.1,3.9-2.1c3.7-4.6,7.9-8.9,11.7-13.5
	c2.2-3.4,6.8-1.6,10.2-2.1c-5.7,7.4-12.6,13.7-18.1,21.2c6.7,7.2,13.2,14.5,19.6,21.9c-3.6-0.5-8.6,1.5-11-2.2
	c-3.1-3.8-6.4-7.5-9.7-11.1c-1.7-1.8-3-4.1-5.1-5.4c-0.3,0-1,0.1-1.4,0.1c-0.6,6.2-0.1,12.4-0.2,18.6c-2.3,0-4.7,0-7,0.1
	c-0.5-13.2-0.1-26.4-0.3-39.5C220.6,241.6,220,240.1,221.1,239.3z"/>
<path d="M274.1,239.1c7.9,0.6,16.2-1.2,23.8,1.5c6.1,2.2,8.9,10.2,5.4,15.7c-0.9,1.8-3.4,2.3-4,4.2c5.3,2.1,8.4,8.4,6.2,13.7
	c-1.6,5.1-7,7.9-12,8.1c-6.5,0.1-13,0-19.5,0C274.1,267.9,274,253.5,274.1,239.1z M280.9,245.7c-0.3,3.9-0.1,7.9,0,11.9
	c3.9,0,7.9,0.3,11.8-0.1c3.9-0.5,6.5-5.3,4.5-8.8c-1.2-2.9-4.6-3.9-7.5-3.6C286.9,245.5,283.6,244.5,280.9,245.7z M280.8,264.5
	c0.1,3.9-0.2,7.9,0.2,11.8c3.9,0.6,7.9,0,11.8,0.2c3.5,0,5.8-3.1,6.5-6.2c-0.7-2.6-1.8-5.7-4.7-6.3c-4.2-0.6-8.4,0-12.6-0.4
	C281.7,263.8,281.1,264.2,280.8,264.5z"/>
<path d="M82.4,247.8c1.5,0.1,3,0.3,4.3,1c6.5,2.8,12.6,6.7,17.9,11.5c0,0.4,0,1.2,0,1.6c-4.8,4.3-10.2,7.8-15.9,10.6
	c-1.9,0.9-4,1.6-6.2,1.8C80.3,265.6,80.2,256.4,82.4,247.8z"/>
<path d="M399.5,250.8c6.7-1.9,15-0.2,19.1,5.8c2.7,3.2,3.1,7.5,2.8,11.6c-8.6,0-17.2,0-25.8,0c0,5.1,4.9,9.4,10,8.9
	c3.4,0.4,6.2-1.8,8.8-3.8c1.9,0.4,3.9,0.7,5.8,1c-4,8.9-16.3,10.9-24.2,6.4c-6.6-3.9-8.5-12.6-6.8-19.7
	C391.1,256.5,394.6,252.3,399.5,250.8z M395.9,262.9c1.4,0.7,2.9,0.4,4.4,0.4c4.7-0.1,9.3,0,14-0.1c-0.6-3.6-3.4-6.5-6.9-7.3
	C402.6,254.5,396.9,257.9,395.9,262.9z"/>
<path d="M437.9,250.7c6.4-1.5,13.8-0.1,18.2,5c6,6.8,4.9,18.5-2.4,24c-7.4,5.2-19,4.4-24.7-3c-3.8-5-4.3-12.2-1.5-17.8
	C429.4,254.7,433.6,251.8,437.9,250.7z M437.8,257.2c-5.8,3.3-6.7,12-2.4,16.9c3.6,4,10.7,4.3,14.4,0.3c3.3-2.9,3.8-7.8,2.6-11.8
	c-0.9-1.4-1.6-3-2.8-4.2C446.5,255.6,441.5,255.3,437.8,257.2z"/>
<path d="M313.7,250.8c2,0,4,0.1,6,0.1c0.1,8-0.2,16.1,0.2,24.1c1.2,0,2-1,2.4-2c3.7-7.3,7.4-14.7,11.1-22c3.2-0.1,6.4-0.1,9.5-0.1
	c0,10.5,0,21,0,31.5c-2,0-4,0-6.1,0c-0.1-8.1,0.2-16.2-0.1-24.3c-2.8,1.4-3.6,4.7-4.9,7.2c-2.8,5.7-5.6,11.4-8.5,17.1
	c-3.2,0-6.4,0-9.6,0C313.7,271.8,313.5,261.3,313.7,250.8z"/>
<path d="M356.7,250.8c7.7,0.1,15.5,0,23.2,0.1c0.2,8.6,0,17.3,0.3,25.9c1.7-0.1,3.4-0.1,5.2-0.2c0.1,5.1,0,10.2,0,15.3
	c-2.1,0-4.3,0-6.4,0c-0.2-3.2-0.2-6.5-0.3-9.7c-7.7,0.1-15.4-0.2-23.1,0.1c-0.1,0.2-0.5,0.5-0.6,0.7c-0.3,2.9-0.1,5.9-0.1,8.9
	c-2.1,0-4.1,0-6.1,0c-0.2-5,0-10-0.1-15c2.5-0.8,5-2.3,5.5-5C355.8,265.1,355.7,257.9,356.7,250.8z M363.1,256.5
	c-1.1,1.4-0.7,3.3-1,5c-0.7,4.7-0.3,9.6-2.8,13.8c0,0.4-0.1,1.1-0.2,1.5c4.7-0.5,9.4,0.1,14.1-0.4c0.2-5.3,0-10.5,0.1-15.8
	c-0.1-1.4,0.1-2.8-0.4-4.1C369.7,256.1,366.4,256.3,363.1,256.5z"/>
</svg>
